<?xml version="1.0" encoding="UTF-8"?>
<svg width="129px" height="38px" viewBox="0 0 129 38" version="1.1" xmlns="http://www.w3.org/2000/svg" xmlns:xlink="http://www.w3.org/1999/xlink">
    <title>button/app store</title>
    <defs>
        <polygon id="path-1" points="0.000199442398 37.4424551 128.194792 37.4424551 128.194792 0.000197908226 0.000199442398 0.000197908226"></polygon>
    </defs>
    <g id="Dreadful-Cherry-Tomatoes" stroke="none" stroke-width="1" fill="none" fill-rule="evenodd">
        <g transform="translate(-584.000000, -1025.000000)" id="footer">
            <g transform="translate(0.000000, 932.000000)">
                <g id="stores" transform="translate(584.000000, 92.954173)">
                    <g id="button/app-store" transform="translate(-0.000199, 0.160108)">
                        <path d="M123.370979,36.970444 L4.82441189,36.970444 C2.42312541,36.970444 0.475570398,35.0378702 0.475570398,32.6550551 L0.475570398,4.78759789 C0.475570398,2.40379331 2.42312541,0.472209026 4.82441189,0.472209026 L123.370979,0.472209026 C125.772265,0.472209026 127.718823,2.40379331 127.718823,4.78759789 L127.718823,32.6550551 C127.718823,35.0378702 125.772265,36.970444 123.370979,36.970444" id="Fill-1" fill="#000000"></path>
                        <polygon id="Clip-4" points="0.000199442398 0.000197908226 128.194792 0.000197908226 128.194792 37.4422572 0.000199442398 37.4422572"></polygon>
                        <path d="M4.82451161,0.944022237 C2.68948074,0.944022237 0.951340238,2.66780288 0.951340238,4.78739998 L0.951340238,32.6548572 C0.951340238,34.7744543 2.68948074,36.498235 4.82451161,36.498235 L123.371079,36.498235 C125.507107,36.498235 127.24425,34.7744543 127.24425,32.6548572 L127.24425,4.78739998 C127.24425,2.66780288 125.507107,0.944022237 123.371079,0.944022237 L4.82451161,0.944022237 Z M123.371079,37.4422572 L4.82451161,37.4422572 C2.16494723,37.4422572 7.03980602e-15,35.294953 7.03980602e-15,32.6548572 L7.03980602e-15,4.78739998 C7.03980602e-15,2.14730425 2.16494723,1.52655666e-15 4.82451161,1.52655666e-15 L123.371079,1.52655666e-15 C126.030643,1.52655666e-15 128.19559,2.14730425 128.19559,4.78739998 L128.19559,32.6548572 C128.19559,35.294953 126.030643,37.4422572 123.371079,37.4422572 L123.371079,37.4422572 Z" id="Fill-3" fill="#A6A8AB"></path>
                        <path d="M44.4539155,9.79912893 L43.9662789,8.28414146 C43.8466134,7.91009492 43.745895,7.49052948 43.6541515,7.13429467 L43.6352045,7.13429467 C43.543461,7.49052948 43.4517175,7.91900079 43.3410269,8.28414146 L42.8633624,9.79912893 L44.4539155,9.79912893 Z M42.6788782,10.6471657 L42.1453698,12.3907371 L40.9776345,12.3907371 L42.9640808,6.23974949 L44.4080438,6.23974949 L46.4214148,12.3907371 L45.2078078,12.3907371 L44.6463774,10.6471657 L42.6788782,10.6471657 Z" id="Fill-6" fill="#FEFEFE"></path>
                        <path d="M48.1121877,7.94660899 L48.838158,10.2007837 C48.9667984,10.592642 49.0595391,10.9488768 49.1423077,11.3140174 L49.1702296,11.3140174 C49.2529982,10.9488768 49.3537166,10.6015478 49.4733821,10.2007837 L50.1893803,7.94660899 L51.3760626,7.94660899 L49.665844,12.3906382 L48.5529554,12.3906382 L46.8886086,7.94660899 L48.1121877,7.94660899 Z" id="Fill-8" fill="#FEFEFE"></path>
                        <path d="M54.7868267,10.2184965 C53.9870627,10.2095906 53.2231983,10.3738544 53.2231983,11.0487215 C53.2231983,11.4870882 53.508401,11.6869755 53.8673973,11.6869755 C54.327112,11.6869755 54.6482143,11.3950609 54.7589048,11.0764286 C54.7868267,10.9942967 54.7868267,10.9121648 54.7868267,10.8300329 L54.7868267,10.2184965 Z M55.8897432,11.3228244 C55.8897432,11.7235885 55.9086902,12.1164363 55.9635369,12.3905392 L54.943389,12.3905392 L54.8606204,11.8977478 L54.8326985,11.8977478 C54.5664429,12.2440872 54.096756,12.4904829 53.508401,12.4904829 C52.6069213,12.4904829 52.1013348,11.843323 52.1013348,11.1674664 C52.1013348,10.0542326 53.1045301,9.47930924 54.7589048,9.48821511 L54.7589048,9.41498907 C54.7589048,9.12406397 54.6402366,8.64017836 53.8494475,8.64017836 C53.4076825,8.64017836 52.9479678,8.77673504 52.6448154,8.96870602 L52.4234343,8.23842466 C52.7545087,8.03754782 53.3338889,7.84656638 54.0419094,7.84656638 C55.4768974,7.84656638 55.8897432,8.74902789 55.8897432,9.72570498 L55.8897432,11.3228244 Z" id="Fill-10" fill="#FEFEFE"></path>
                        <mask id="mask-2" fill="white">
                            <use xlink:href="#path-1"></use>
                        </mask>
                        <g id="Clip-13"></g>
                        <path d="M57.4884734,12.3902424 L58.6193118,12.3902424 L58.6193118,7.94621317 L57.4884734,7.94621317 L57.4884734,12.3902424 Z M58.0499038,7.30795914 C57.6729577,7.30795914 57.4246519,7.03385625 57.4246519,6.70532859 C57.4246519,6.3589892 57.6819326,6.09379218 58.0588787,6.09379218 C58.445797,6.09379218 58.6841306,6.3589892 58.6931055,6.70532859 C58.6931055,7.03385625 58.445797,7.30795914 58.0588787,7.30795914 L58.0499038,7.30795914 Z" id="Fill-12" fill="#FEFEFE" mask="url(#mask-2)"></path>
                        <polygon id="Fill-14" fill="#FEFEFE" mask="url(#mask-2)" points="60.2467618 12.3912319 61.3776002 12.3912319 61.3776002 5.90281074 60.2467618 5.90281074"></polygon>
                        <path d="M65.3860932,10.2184965 C64.5863292,10.2095906 63.8234621,10.3738544 63.8234621,11.0487215 C63.8234621,11.4870882 64.1076675,11.6869755 64.4666638,11.6869755 C64.9263785,11.6869755 65.248478,11.3950609 65.3581713,11.0764286 C65.3860932,10.9942967 65.3860932,10.9121648 65.3860932,10.8300329 L65.3860932,10.2184965 Z M66.4900069,11.3228244 C66.4900069,11.7235885 66.5079567,12.1164363 66.5628034,12.3905392 L65.5426555,12.3905392 L65.4598869,11.8977478 L65.431965,11.8977478 C65.1657094,12.2440872 64.6970198,12.4904829 64.1076675,12.4904829 C63.207185,12.4904829 62.7015986,11.843323 62.7015986,11.1674664 C62.7015986,10.0542326 63.7037966,9.47930924 65.3581713,9.48821511 L65.3581713,9.41498907 C65.3581713,9.12406397 65.2395031,8.64017836 64.448714,8.64017836 C64.0069491,8.64017836 63.5472343,8.77673504 63.2440819,8.96870602 L63.0227008,8.23842466 C63.3537752,8.03754782 63.9331554,7.84656638 64.6411759,7.84656638 C66.0761639,7.84656638 66.4900069,8.74902789 66.4900069,9.72570498 L66.4900069,11.3228244 Z" id="Fill-15" fill="#FEFEFE" mask="url(#mask-2)"></path>
                        <path d="M69.2196753,10.5562268 C69.2196753,10.6472646 69.2286502,10.739292 69.2475972,10.8204343 C69.3672627,11.2776023 69.7621586,11.60613 70.2497953,11.60613 C70.9578158,11.60613 71.3896086,11.0490183 71.3896086,10.1455673 C71.3896086,9.36086117 71.0126625,8.7216176 70.2587702,8.7216176 C69.7990555,8.7216176 69.3762376,9.05113479 69.2565721,9.54392628 C69.2386223,9.62506865 69.2196753,9.72600184 69.2196753,9.83485137 L69.2196753,10.5562268 Z M68.0888369,5.90241492 L69.2196753,5.90241492 L69.2196753,8.55735377 L69.2386223,8.55735377 C69.5138528,8.12888246 70.0014895,7.8458737 70.6736104,7.8458737 C71.7675519,7.8458737 72.5483689,8.74932475 72.539394,10.1000484 C72.539394,11.6961782 71.5192461,12.4907798 70.5080732,12.4907798 C69.9276958,12.4907798 69.4131344,12.2711016 69.0910349,11.7238854 L69.0730851,11.7238854 L69.0172413,12.3908361 L68.0519401,12.3908361 C68.0708871,12.0890261 68.0888369,11.5962346 68.0888369,11.148962 L68.0888369,5.90241492 Z" id="Fill-16" fill="#FEFEFE" mask="url(#mask-2)"></path>
                        <polygon id="Fill-17" fill="#FEFEFE" mask="url(#mask-2)" points="73.8716692 12.3912319 75.0025076 12.3912319 75.0025076 5.90281074 73.8716692 5.90281074"></polygon>
                        <path d="M79.4059963,9.69859155 C79.4149712,9.28793199 79.2314842,8.61207539 78.477592,8.61207539 C77.7785464,8.61207539 77.4843688,9.24241309 77.4384971,9.69859155 L79.4059963,9.69859155 Z M77.4384971,10.4832977 C77.466419,11.2858155 78.0996486,11.6331445 78.8176413,11.6331445 C79.3411776,11.6331445 79.7091488,11.5510125 80.0591702,11.4322676 L80.2247074,12.1981724 C79.8387863,12.3624363 79.3042807,12.4821707 78.661079,12.4821707 C77.2081411,12.4821707 76.3525332,11.5965314 76.3525332,10.2369019 C76.3525332,9.00492322 77.1074227,7.84617056 78.5414135,7.84617056 C79.9943514,7.84617056 80.4720159,9.03263037 80.4720159,10.0083179 C80.4720159,10.2181006 80.4540661,10.3823645 80.4361163,10.4832977 L77.4384971,10.4832977 Z" id="Fill-18" fill="#FEFEFE" mask="url(#mask-2)"></path>
                        <path d="M86.0895105,11.6786634 C86.7327123,11.6786634 87.1834521,11.0582211 87.1834521,10.15477 C87.1834521,9.46110168 86.8713247,8.65858383 86.0984854,8.65858383 C85.2987214,8.65858383 84.9766219,9.43339453 84.9766219,10.1735713 C84.9766219,11.0305139 85.4084147,11.6786634 86.0805356,11.6786634 L86.0895105,11.6786634 Z M86.0526137,12.4910766 C84.7931349,12.4910766 83.8078895,11.6331445 83.8078895,10.2002889 C83.8078895,8.7397262 84.7741879,7.84617056 86.1264074,7.84617056 C87.4596798,7.84617056 88.3521845,8.77633922 88.3521845,10.1280524 C88.3521845,11.7607953 87.192427,12.4910766 86.0615886,12.4910766 L86.0526137,12.4910766 Z" id="Fill-19" fill="#FEFEFE" mask="url(#mask-2)"></path>
                        <path d="M89.6834625,9.26952652 C89.6834625,8.75793376 89.6645155,8.32946245 89.6465657,7.94651003 L90.6298167,7.94651003 L90.6856606,8.61247121 L90.7135825,8.61247121 C90.9150193,8.26613182 91.402656,7.84656638 92.1475734,7.84656638 C92.9293876,7.84656638 93.7381265,8.34826373 93.7381265,9.75341213 L93.7381265,12.3905392 L92.6072881,12.3905392 L92.6072881,9.88106294 C92.6072881,9.24280891 92.3679572,8.75793376 91.7516802,8.75793376 C91.3019376,8.75793376 90.9898102,9.07755554 90.8691476,9.41498907 C90.8322508,9.50701639 90.8143009,9.64357307 90.8143009,9.77122387 L90.8143009,12.3905392 L89.6834625,12.3905392 L89.6834625,9.26952652 Z" id="Fill-20" fill="#FEFEFE" mask="url(#mask-2)"></path>
                        <path d="M98.9499552,6.80586597 L98.9499552,7.94680689 L100.025947,7.94680689 L100.025947,8.78593777 L98.9499552,8.78593777 L98.9499552,10.739292 C98.9499552,11.2865082 99.0965454,11.5596216 99.5293354,11.5596216 C99.7307722,11.5596216 99.8414628,11.5507157 99.9701031,11.5141027 L99.9890501,12.363129 C99.8225157,12.4274491 99.5203605,12.4818739 99.1703391,12.4818739 C98.7475212,12.4818739 98.4074719,12.3443277 98.196063,12.1167332 C97.9477572,11.8614316 97.8370667,11.450772 97.8370667,10.8669428 L97.8370667,8.78593777 L97.2028398,8.78593777 L97.2028398,7.94680689 L97.8370667,7.94680689 L97.8370667,7.11559235 L98.9499552,6.80586597 Z" id="Fill-21" fill="#FEFEFE" mask="url(#mask-2)"></path>
                        <path d="M101.285226,5.90231597 L102.416065,5.90231597 L102.416065,8.54834895 L102.434014,8.54834895 C102.572627,8.33856623 102.765089,8.16539653 102.995445,8.04665159 C103.225801,7.91900079 103.492056,7.84577474 103.777259,7.84577474 C104.540126,7.84577474 105.33989,8.34846164 105.33989,9.77142178 L105.33989,12.3907371 L104.209052,12.3907371 L104.209052,9.89016672 C104.209052,9.25092315 103.969721,8.75813167 103.344469,8.75813167 C102.903701,8.75813167 102.590577,9.05103584 102.461936,9.38747982 C102.42504,9.48841302 102.416065,9.60715795 102.416065,9.72590289 L102.416065,12.3907371 L101.285226,12.3907371 L101.285226,5.90231597 Z" id="Fill-22" fill="#FEFEFE" mask="url(#mask-2)"></path>
                        <path d="M109.714859,9.69859155 C109.724831,9.28793199 109.540347,8.61207539 108.786454,8.61207539 C108.088406,8.61207539 107.794228,9.24241309 107.747359,9.69859155 L109.714859,9.69859155 Z M107.747359,10.4832977 C107.775281,11.2858155 108.409508,11.6331445 109.126504,11.6331445 C109.651037,11.6331445 110.019008,11.5510125 110.368033,11.4322676 L110.53357,12.1981724 C110.148646,12.3624363 109.613143,12.4821707 108.970939,12.4821707 C107.518001,12.4821707 106.662393,11.5965314 106.662393,10.2369019 C106.662393,9.00492322 107.416285,7.84617056 108.851273,7.84617056 C110.304211,7.84617056 110.781875,9.03263037 110.781875,10.0083179 C110.781875,10.2181006 110.763926,10.3823645 110.744979,10.4832977 L107.747359,10.4832977 Z" id="Fill-23" fill="#FEFEFE" mask="url(#mask-2)"></path>
                        <path d="M28.6095134,18.3556911 C28.5815914,15.3128521 31.1214904,13.8305195 31.237167,13.7622412 C29.8001845,11.6792571 27.5694213,11.3962483 26.7866099,11.3734889 C24.914843,11.1795388 23.0989199,12.4867226 22.1465825,12.4867226 C21.1733036,12.4867226 19.7014187,11.3932797 18.1208377,11.424945 C16.0835336,11.4575999 14.1778615,12.6272375 13.1337805,14.444035 C10.9778082,18.1498665 12.5863111,23.5933323 14.6515372,26.5906523 C15.685646,28.0561628 16.8932697,29.6938533 18.4738507,29.6354704 C20.0205265,29.5721398 20.596915,28.6587933 22.4646931,28.6587933 C24.3145213,28.6587933 24.8570047,29.6354704 26.4694965,29.5988574 C28.1298544,29.5721398 29.1729382,28.1264202 30.1701501,26.6450771 C31.3668045,24.9648363 31.8454663,23.309334 31.8644133,23.2232439 C31.8255221,23.2103798 28.6414242,22.0051188 28.6095134,18.3556911" id="Fill-24" fill="#FEFEFE" mask="url(#mask-2)"></path>
                        <path d="M25.5633299,9.40390621 C26.3950047,8.37181481 26.96541,6.96666641 26.8048588,5.54172718 C25.6022212,5.5951624 24.0974283,6.36799402 23.2308511,7.37831552 C22.4629978,8.26791299 21.7759188,9.72748615 21.9544197,11.0980006 C23.3076364,11.1969547 24.6947583,10.4201649 25.5633299,9.40390621" id="Fill-25" fill="#FEFEFE" mask="url(#mask-2)"></path>
                        <path d="M47.2727347,24.1677609 L46.206715,20.8953484 C46.0910385,20.561873 45.8806267,19.7741983 45.5684994,18.5352928 L45.5306053,18.5352928 C45.4049566,19.0686555 45.204517,19.8553406 44.9302837,20.8953484 L43.8812167,24.1677609 L47.2727347,24.1677609 Z M50.962419,29.3945171 L48.8084411,29.3945171 L47.6277421,25.7124346 L43.5262092,25.7124346 L42.4003569,29.3945171 L40.3022228,29.3945171 L44.3698506,16.8619787 L46.8778387,16.8619787 L50.962419,29.3945171 Z" id="Fill-26" fill="#FEFEFE" mask="url(#mask-2)"></path>
                        <path d="M59.3570493,24.8374823 C59.3570493,23.9577803 59.1566097,23.2324466 58.7577249,22.6614814 C58.3199488,22.0677567 57.7325909,21.7689153 56.9976457,21.7689153 C56.4970453,21.7689153 56.0423166,21.9351582 55.6384458,22.2617068 C55.2325805,22.5922135 54.9673221,23.0226639 54.8426706,23.5560266 C54.7798462,23.8044014 54.7489327,24.0072573 54.7489327,24.167563 L54.7489327,25.6746341 C54.7489327,26.3316894 54.9513667,26.886822 55.3562348,27.3380528 C55.7630973,27.7922521 56.2906224,28.0158884 56.9408046,28.0158884 C57.7026746,28.0158884 58.2960157,27.7269424 58.7198308,27.1441027 C59.1456403,26.5602734 59.3570493,25.7923895 59.3570493,24.8374823 M61.4182865,24.7632667 C61.4182865,26.3010137 61.0004546,27.5151806 60.1627966,28.4077467 C59.4128931,29.2013587 58.4824944,29.5971752 57.3716002,29.5971752 C56.1729514,29.5971752 55.3093658,29.1687038 54.7858295,28.3147298 L54.7489327,28.3147298 L54.7489327,33.0734331 L52.7245923,33.0734331 L52.7245923,23.3323903 C52.7245923,22.3656086 52.699662,21.3750779 52.6498014,20.3578296 L54.4298248,20.3578296 L54.5415126,21.7896956 L54.5804038,21.7896956 C55.2545191,20.7110958 56.2796531,20.1717959 57.652814,20.1717959 C58.7248169,20.1717959 59.6233049,20.5933404 60.3412975,21.4364295 C61.0592901,22.280508 61.4182865,23.3887941 61.4182865,24.7632667" id="Fill-27" fill="#FEFEFE" mask="url(#mask-2)"></path>
                        <path d="M69.8316643,24.8374823 C69.8316643,23.9577803 69.6312247,23.2324466 69.2303455,22.6614814 C68.7925694,22.0677567 68.207206,21.7689153 67.4702663,21.7689153 C66.9696659,21.7689153 66.5159344,21.9351582 66.1120636,22.2617068 C65.7052011,22.5922135 65.4409399,23.0226639 65.3162884,23.5560266 C65.2524668,23.8044014 65.2215533,24.0072573 65.2215533,24.167563 L65.2215533,25.6746341 C65.2215533,26.3316894 65.4239873,26.886822 65.8298526,27.3380528 C66.2367151,27.7922521 66.7622458,28.0158884 67.4144224,28.0158884 C68.1752952,28.0158884 68.7706307,27.7269424 69.1934486,27.1441027 C69.6172637,26.5602734 69.8316643,25.7923895 69.8316643,24.8374823 M71.8909071,24.7632667 C71.8909071,26.3010137 71.4730752,27.5151806 70.6354172,28.4077467 C69.8855137,29.2013587 68.9561122,29.5971752 67.8432236,29.5971752 C66.645572,29.5971752 65.7839808,29.1687038 65.2594473,28.3147298 L65.2215533,28.3147298 L65.2215533,33.0734331 L63.1992073,33.0734331 L63.1992073,23.3323903 C63.1992073,22.3656086 63.1722826,21.3750779 63.1244164,20.3578296 L64.9034426,20.3578296 L65.0161276,21.7896956 L65.0550189,21.7896956 C65.7271397,20.7110958 66.7512765,20.1717959 68.1264318,20.1717959 C69.1994319,20.1717959 70.0959255,20.5933404 70.8149153,21.4364295 C71.5329079,22.280508 71.8909071,23.3887941 71.8909071,24.7632667" id="Fill-28" fill="#FEFEFE" mask="url(#mask-2)"></path>
                        <path d="M83.6022644,25.8791723 C83.6022644,26.9449081 83.2303043,27.8117461 82.4794037,28.4816654 C81.6567038,29.2139259 80.5109072,29.578077 79.0410167,29.578077 C77.682814,29.578077 76.5918641,29.3188172 75.7661726,28.7983186 L76.2358594,27.1250045 C77.1243753,27.6583672 78.0986514,27.9235642 79.1616794,27.9235642 C79.9245466,27.9235642 80.5168905,27.7543527 80.9427,27.412961 C81.3665151,27.0715693 81.5789213,26.6144013 81.5789213,26.0444256 C81.5789213,25.5358015 81.4034119,25.1063406 81.0543877,24.7590117 C80.7063608,24.4106932 80.1219945,24.0881028 79.310264,23.7902509 C77.099445,22.9699214 75.9955313,21.7725766 75.9955313,20.1962376 C75.9955313,19.1651357 76.3814524,18.3210571 77.1572833,17.6640018 C77.9311198,17.0049674 78.9612398,16.6754502 80.2486405,16.6754502 C81.3984259,16.6754502 82.353755,16.874348 83.1146277,17.271154 L82.6090412,18.9068655 C81.8970319,18.5239131 81.0922818,18.3309525 80.1917994,18.3309525 C79.4787928,18.3309525 78.9243429,18.5041222 78.5254581,18.8514512 C78.1893977,19.1611775 78.0198717,19.5401718 78.0198717,19.9854653 C78.0198717,20.4802359 78.2123336,20.8908954 78.5992518,21.2115068 C78.9353123,21.5093586 79.5476004,21.8319491 80.4361163,22.1802675 C81.5230774,22.6136865 82.320847,23.1213211 82.8334139,23.7031713 C83.3459809,24.2870006 83.6022644,25.0123342 83.6022644,25.8791723" id="Fill-29" fill="#FEFEFE" mask="url(#mask-2)"></path>
                        <path d="M90.2905652,21.8630206 L88.0607992,21.8630206 L88.0607992,26.250646 C88.0607992,27.3668484 88.4546979,27.9239601 89.2424954,27.9239601 C89.6024889,27.9239601 89.9026497,27.8932843 90.1399862,27.8319327 L90.1958301,29.3558261 C89.7989397,29.5052468 89.2724118,29.5784728 88.6232268,29.5784728 C87.8234627,29.5784728 87.1982108,29.3370248 86.7494654,28.8551183 C86.30072,28.3712326 86.0743529,27.5578298 86.0743529,26.418868 L86.0743529,21.8630206 L84.7440721,21.8630206 L84.7440721,20.3559495 L86.0743529,20.3559495 L86.0743529,18.7024263 L88.0607992,18.1067225 L88.0607992,20.3559495 L90.2905652,20.3559495 L90.2905652,21.8630206 Z" id="Fill-30" fill="#FEFEFE" mask="url(#mask-2)"></path>
                        <path d="M98.2537018,24.8654863 C98.2537018,24.0332822 98.0732065,23.3188336 97.7102213,22.7211507 C97.2864062,22.0007648 96.6801013,21.6405718 95.8942983,21.6405718 C95.0795761,21.6405718 94.4623018,22.0007648 94.0384867,22.7211507 C93.6755016,23.3188336 93.4970006,24.0451567 93.4970006,24.905068 C93.4970006,25.7372721 93.6755016,26.4517208 94.0384867,27.0474245 C94.4752656,27.7678105 95.0875538,28.1280034 95.8763484,28.1280034 C96.6491877,28.1280034 97.2554926,27.7628628 97.6922715,27.0286232 C98.066226,26.4200554 98.2537018,25.69868 98.2537018,24.8654863 M100.352833,24.8011662 C100.352833,26.1894924 99.9539483,27.3294437 99.1541843,28.2220098 C98.315529,29.140304 97.2036376,29.597472 95.8195074,29.597472 C94.4812489,29.597472 93.4182209,29.1571262 92.6244401,28.2774241 C91.8306594,27.3977221 91.4347662,26.2874569 91.4347662,24.9505869 C91.4347662,23.5484071 91.8426259,22.4025185 92.6623342,21.5109419 C93.4780536,20.6173863 94.5809701,20.1711032 95.9680919,20.1711032 C97.3033588,20.1711032 98.3793505,20.611449 99.1910811,21.4911511 C99.966912,22.3480937 100.352833,23.449453 100.352833,24.8011662" id="Fill-31" fill="#FEFEFE" mask="url(#mask-2)"></path>
                        <path d="M106.92815,22.1224783 C106.728707,22.0868548 106.516301,22.067064 106.291929,22.067064 C105.580916,22.067064 105.029458,22.3352297 104.64254,22.8676028 C104.306479,23.3386244 104.136953,23.9343281 104.136953,24.6517455 L104.136953,29.392637 L102.114607,29.392637 L102.13156,23.2030572 C102.13156,22.1610704 102.10663,21.21309 102.057766,20.357137 L103.81984,20.357137 L103.894631,22.0868548 L103.94848,22.0868548 C104.161884,21.4921406 104.499939,21.0141923 104.960651,20.6559784 C105.410393,20.333388 105.899027,20.1711032 106.42356,20.1711032 C106.610039,20.1711032 106.779565,20.1839673 106.92815,20.2067267 L106.92815,22.1224783 Z" id="Fill-32" fill="#FEFEFE" mask="url(#mask-2)"></path>
                        <path d="M114.047446,23.9262139 C114.062404,23.3324892 113.930772,22.8179278 113.655541,22.3835193 C113.30552,21.8254181 112.766028,21.5463675 112.042052,21.5463675 C111.381898,21.5463675 110.844401,21.8204704 110.432552,22.3657075 C110.094497,22.8001161 109.895055,23.3186356 109.834225,23.9262139 L114.047446,23.9262139 Z M115.977051,24.4467125 C115.977051,24.807895 115.95212,25.1097051 115.903257,25.3580799 L109.834225,25.3580799 C109.857161,26.250646 110.152336,26.9334294 110.713766,27.4054405 C111.224338,27.8259955 111.888482,28.0347887 112.700212,28.0347887 C113.597703,28.0347887 114.416414,27.8932843 115.154351,27.6082964 L115.472462,29.0025599 C114.61087,29.3746274 113.593714,29.5616506 112.417004,29.5616506 C111.006946,29.5616506 109.898047,29.149012 109.092299,28.3237347 C108.288546,27.5004365 107.883678,26.3931399 107.883678,25.0048137 C107.883678,23.6422156 108.25863,22.5072119 109.009531,21.6017818 C109.794336,20.6350001 110.857364,20.1530936 112.192631,20.1530936 C113.503965,20.1530936 114.499183,20.6350001 115.175292,21.6017818 C115.709798,22.3706552 115.977051,23.3186356 115.977051,24.4467125 L115.977051,24.4467125 Z" id="Fill-33" fill="#FEFEFE" mask="url(#mask-2)"></path>
                    </g>
                </g>
            </g>
        </g>
    </g>
</svg>