<?xml version="1.0" encoding="UTF-8"?>
<svg width="249px" height="45px" viewBox="0 0 249 45" version="1.1" xmlns="http://www.w3.org/2000/svg" xmlns:xlink="http://www.w3.org/1999/xlink">
    <title>logo/deadful tomatoes</title>
    <defs>
        <path d="M38.7903168,14.9061018 C38.5888928,15.0764185 38.2745008,14.9921344 38.0506963,15.0879595 C38.0251187,15.098801 38.0006068,15.1124403 37.9775158,15.1288774 C37.7146344,15.3166805 38.0016725,15.6629095 38.1476783,15.8458164 C38.4038101,16.1675646 39.1235368,16.8016184 39.5619094,16.6879574 C39.8262118,16.619411 39.9096945,16.2172257 39.9178651,15.9860566 C39.9320749,15.5744288 39.8137783,14.9267356 39.4276267,14.6892715 C39.1317075,14.5074138 38.999201,14.7298397 38.7903168,14.9061018 Z M40.9555363,16.4819686 C41.4553663,16.8743615 42.2191435,16.2892694 41.6368966,15.8000022 C41.0720568,15.3257734 40.4002881,16.0462096 40.9555363,16.4819686 Z M36.6766079,17.4702951 C36.3480061,17.7102074 36.2371696,17.9766988 36.2709179,18.2299007 C36.3980957,19.1857027 38.5856956,19.9564995 38.8968904,18.4344906 C39.110748,17.3867106 37.3661388,16.9666892 36.6766079,17.4702951 Z M23.2852849,44.8122484 C23.0451391,45.5449251 21.3747762,43.7333427 22.2014318,43.6658456 C22.5634266,43.6361188 23.463618,44.268424 23.2852849,44.8122484 Z M23.7872464,43.6497581 C23.4739201,44.6062596 21.2944908,42.2421097 22.3730152,42.1539787 C22.8454913,42.1151591 24.019932,42.9401634 23.7872464,43.6497581 Z M21.8209642,43.5609277 C21.962707,44.0904133 21.2365858,45.2668926 20.7633992,44.9675269 C19.7630287,44.334872 20.4397709,43.1150266 20.6490103,42.9744366 C20.8863141,42.8146117 21.5825947,42.6708742 21.8209642,43.5609277 Z M47.5794383,31.6482001 C46.7460331,31.5653149 46.8955913,30.3328794 47.6511978,30.8508241 C47.9822864,31.0777965 48.1979202,31.7094022 47.5794383,31.6482001 Z M49.0032611,31.8559375 C47.9158555,31.7482218 48.1105299,30.1398305 49.0966906,30.8158514 C49.5286687,31.1120696 49.8100229,31.9360248 49.0032611,31.8559375 Z M47.4202885,30.5993709 C47.0845817,30.7399608 45.459335,30.390934 45.3175921,30.0621912 C45.0177652,29.3669353 46.6383938,29.6802901 46.9360893,29.7998965 C47.2735722,29.9352406 47.9851283,30.3633056 47.4202885,30.5993709 Z M43.2777742,27.8994837 C42.9143584,28.3086635 40.8812901,28.0071994 40.7146801,27.529823 C40.4876784,26.879332 42.4454347,26.7523814 42.8855835,26.824425 C43.3488232,26.9003156 43.6681887,27.4598777 43.2777742,27.8994837 Z M40.1086318,29.7841588 C39.1665215,29.5557875 35.6897367,29.0231543 35.5224163,27.8473745 C35.9394741,27.758544 36.3988062,28.0893851 36.8240347,28.1775161 C37.6638343,28.3513301 38.5594075,28.2992209 39.4116407,28.370565 C41.2443507,28.5230457 42.9349626,29.1840284 44.3996385,30.2804205 C44.9651889,30.703939 46.5115712,32.2738605 44.7804614,31.6740798 C43.1722664,31.1166161 41.7914283,30.1919397 40.1086318,29.7841588 Z M25.1528089,10.5894298 C24.9861989,9.27970477 25.6561914,8.30326889 25.9027315,7.09146719 C25.9897666,6.66305245 26.1432325,4.29785336 24.8185232,4.6797545 C23.3510053,5.10292335 24.3304163,7.32298602 24.5218934,8.21338922 C24.9652394,10.2781734 24.0121166,11.9841384 23.8572297,13.9041359 C25.8540629,13.2634373 25.3219056,11.9152423 25.1528089,10.5894298 Z M17.1136101,11.2546093 C17.3455852,10.6027194 16.1089766,10.0693868 15.8485819,10.5058452 C15.4823241,11.1196149 16.9274616,11.7771004 17.1136101,11.2546093 Z M18.4180704,13.2323116 C18.8411675,12.5748261 17.3480719,12.2702145 17.372939,12.134171 C17.285904,12.6087496 18.058207,13.7918737 18.4180704,13.2323116 Z M26.6096695,1.50983516 C28.0690167,1.44303743 26.530805,0.0556731246 25.3524567,0.00251472426 C23.6955931,-0.0726764342 25.439847,1.56369301 26.6096695,1.50983516 Z M26.0291988,3.58930784 C27.8633298,3.69842246 25.4771478,2.17116762 25.7375425,2.13514581 C24.8309568,2.26034783 24.4678962,3.49663037 26.0291988,3.58930784 Z M4.15497569,39.3872938 C4.16776452,39.6768672 3.9137642,39.7548561 3.85514874,39.9765826 C3.84839908,40.0021126 3.84413614,40.0293913 3.84342565,40.059118 C3.83347878,40.4004509 4.27646955,40.6162321 4.50737893,40.7337401 C4.91235845,40.9400786 5.83990367,41.2321001 6.01290808,40.8760787 C6.11699492,40.6616965 5.851982,40.1885168 5.67542514,39.9370635 C5.36138838,39.490463 4.7830492,38.8623546 4.36599134,38.8151415 C4.04627066,38.7794694 4.14147637,39.0875783 4.15497569,39.3872938 Z M2.74003406,42.5047542 C2.85868596,42.6173661 2.99829732,42.6894097 3.1293828,42.6820654 C3.42388107,42.6656283 3.61571348,42.2854758 3.65763241,41.9703724 C3.68214433,41.7839682 3.72086606,41.7168208 3.8508858,41.6339356 C3.94857823,41.5716844 4.25302336,41.5174768 4.2171436,41.3079907 C4.1723827,41.0442971 3.89529145,41.0414993 3.77877102,41.0761222 C3.54217772,41.1460674 3.47183917,41.4143075 3.37201527,41.6461761 C3.28640118,41.8448206 3.10416039,41.7825693 2.92369583,41.710176 C2.71658788,41.6269411 2.51232189,41.5307664 2.46010084,41.8014546 C2.42635255,41.9766674 2.49384914,42.1767109 2.60610662,42.3428309 C2.52191351,42.2658911 2.41747142,42.2025906 2.28887266,42.1655196 C1.57909275,41.9612795 1.7421503,43.0891469 2.4156952,43.2573652 C2.84767336,43.3650809 2.96881197,42.8733657 2.74003406,42.5047542 Z M6.68467675,39.9118833 C7.2910803,40.0633147 7.28930408,39.0305729 6.55749897,38.8200377 C5.84807431,38.6157975 6.01113185,39.7433152 6.68467675,39.9118833 Z M9.60656851,39.6954027 C9.36251506,40.1199704 9.08009513,40.4154892 8.73231008,40.7246472 C8.62396029,40.8211717 7.80085716,41.4569741 8.17386462,41.7014328 C8.69891703,42.0459132 9.53658521,40.3798171 9.77530998,40.1070305 C10.0452963,39.7989217 10.3742534,39.4187691 10.4815374,38.9497862 C10.089702,38.8116443 9.76642885,39.4170205 9.60656851,39.6954027 Z M8.76321641,42.0266783 C8.49713775,41.8797932 8.07688268,42.1819568 8.45379784,42.5285356 C8.89714385,42.9359667 8.68683869,41.9843614 8.76321641,42.0266783 Z M10.9501059,41.8717495 C11.1938041,42.3428309 11.4595275,42.5928852 11.7099753,42.681366 C12.6556381,43.0150049 13.382825,41.0439473 11.8684147,39.9604952 C10.8261253,39.2148787 10.438908,40.8830732 10.9501059,41.8717495 Z M10.8580973,16.1703624 C10.7323405,17.0320881 9.52308589,16.7753889 9.68472245,15.8793901 C9.71420781,15.7167674 9.773889,15.5989096 9.85026672,15.5149753 C9.67939378,15.5999588 9.46837813,15.6076528 9.27547999,15.485948 C8.97742926,15.2977953 9.06446434,15.0557846 9.1372896,14.8043314 C9.20052325,14.585053 9.25274429,14.3587801 9.03000555,14.1552394 C8.77032131,13.9177752 8.47333633,13.7054913 8.37742012,13.3473716 C8.33017251,13.1711095 8.30992353,12.7885089 8.59198822,12.8392192 C8.81650319,12.879088 8.9006963,13.3242896 8.97636353,13.4865626 C9.07725316,13.7019941 9.15327564,13.7841797 9.35754163,13.8981905 C9.70283996,14.0908897 10.1312657,14.5196542 10.1738951,14.9351291 C10.1930783,15.1201343 10.1266475,15.2824073 10.01439,15.3988662 C10.3948576,15.2390412 10.938738,15.6177948 10.8580973,16.1703624 Z M44.8337482,33.3653563 C45.4351783,33.4003289 47.177656,33.2730286 46.6231182,34.3218578 C46.1016183,35.308086 45.0792226,34.592546 44.7296613,34.4652456 C43.6884376,34.0868417 43.9680156,35.429441 43.0383389,35.6966319 C42.5630209,35.8333749 42.5203914,35.4490257 42.0294426,36.0267736 C41.8805948,36.2019865 41.7818367,36.4321064 41.5541245,36.5384232 C41.3036766,36.6552318 41.039019,36.4800189 40.9040258,36.4065764 C40.3803944,36.1222489 40.4670742,35.6235391 40.7967417,34.9104472 C40.908644,34.6684366 41.2450612,34.2260328 41.144882,34.0466232 C41.0397294,33.857771 40.8081096,34.0920876 40.5772002,34.15294 C40.3498433,34.2127432 40.0471744,34.1588853 40.0287016,33.9626889 C39.9889141,33.5384708 40.8482523,33.2083292 41.0773854,32.8662968 C41.3640683,32.4382318 40.7075752,32.5907125 40.4805735,32.6074994 C40.1349199,32.6326797 39.5203457,32.5032809 40.2397173,32.0762651 C40.6770241,31.8167682 41.070991,31.841249 41.3793439,31.9283309 C41.534586,31.9723964 41.6525274,32.0794126 41.811322,32.1133361 C42.0301531,32.1595 42.0667433,32.1021448 42.3697675,31.9668008 C42.9914466,31.6887683 43.1186243,32.3364615 43.270314,32.6155431 C43.5243144,33.0824277 44.1918201,33.3268864 44.8287747,33.3650066 C44.830551,33.3650066 44.8319719,33.3650066 44.8337482,33.3653563 Z M3.19332694,19.8047183 C2.44269383,20.0407836 0.510870439,20.9241923 0.059353791,19.7651992 C-0.364808976,18.675452 1.60467041,18.845419 2.15387948,18.8010038 C3.78907313,18.6688072 2.0377143,17.6241747 2.85797547,16.9792794 C3.27752005,16.6498372 3.73436537,16.9652903 3.70559051,16.2445044 C3.69706463,16.0262752 3.57095258,15.7821662 3.7283262,15.5887675 C3.90204111,15.3757842 4.40116061,15.4111066 4.63917489,15.4153033 C5.56103619,15.4306913 5.98519895,15.9031715 6.3479043,16.6697716 C6.47117439,16.9303177 6.54009195,17.4646995 6.84844479,17.5762622 C7.1731389,17.69412 7.20013753,17.38741 7.4097322,17.2321315 C7.61612966,17.0793011 8.03176654,16.9918695 8.26125494,17.1544923 C8.75682199,17.506317 8.08682955,18.1746439 8.17670659,18.5740314 C8.28931931,19.0734406 8.90673547,18.649922 9.15860431,18.5345123 C9.54155864,18.3592994 10.4076464,18.1994745 10.0055089,18.8905337 C9.76145542,19.3098556 9.26837508,19.4633854 8.81010877,19.5242378 C8.57990989,19.554664 8.32662006,19.513746 8.10246034,19.554664 C7.79375226,19.6116694 7.81151452,19.6777677 7.59517019,19.9299203 C7.15146894,20.4475153 6.31557699,19.9400624 5.84061416,19.7644998 C5.04593065,19.47038 3.99582584,19.5536148 3.19972135,19.8029697 C3.19758988,19.8033194 3.19545841,19.8040189 3.19332694,19.8047183 Z M38.7523056,9.73819597 C38.2151749,9.58921256 38.2869344,9.6189393 37.8457199,9.91515749 C37.4247543,10.1973866 35.9217119,11.2654508 37.1920687,11.4333194 C37.6613476,11.495221 37.9437675,11.1269592 38.3395107,10.9737791 C38.6819671,10.8415825 39.4766506,10.95979 39.7334928,10.7226756 C40.3548167,10.1473758 39.1764684,9.85605374 38.7523056,9.73819597 Z M36.1895667,12.3702362 C36.4737629,11.7917889 35.856702,11.4546527 35.9138965,10.9178228 C35.9767749,10.3271351 38.560118,8.56836144 36.5203,8.34663495 C34.9319987,8.17387015 34.7888349,10.7240745 34.0296759,11.587199 C33.6453006,12.0236575 32.0037126,13.4599834 32.104247,14.1111739 C32.249187,15.0522874 33.6886405,13.5897319 34.0719501,13.4113715 C34.6421187,13.1459292 35.8829901,12.9934485 36.1895667,12.3702362 Z M28.586609,12.4804 C28.8892779,12.7458423 29.3386631,12.8290772 29.9191337,12.573777 C31.4111636,11.9173407 31.0388666,8.0881872 28.8725814,9.74763858 C27.9649299,10.4428945 27.9244319,11.8988052 28.586609,12.4804 Z M13.4055607,34.6586442 C13.3504977,34.2676502 12.5682477,33.8812026 12.1135339,33.9431042 C11.65882,34.0050057 11.3344812,34.3725681 11.3895442,34.7639118 C11.4442519,35.1552556 11.8577573,35.4220968 12.3124712,35.3601952 C12.767185,35.2982937 13.4602684,35.049988 13.4055607,34.6586442 Z M9.95080111,34.5761088 C8.70673242,33.9647872 6.56957731,34.393202 6.18733347,35.1468622 C5.80544488,35.9008721 6.50421219,37.0074062 7.74828088,37.6187278 C8.99270481,38.2296997 10.3110197,38.11429 10.6929083,37.3606298 C11.0751522,36.6069695 11.1948698,35.1874304 9.95080111,34.5761088 Z M37.7078847,26.0165572 C38.2155301,26.1043385 38.3725485,26.0746117 38.7370301,25.6535413 C38.9228233,25.4388093 38.8510638,25.163225 39.1505355,24.9394001 C39.459954,24.708231 39.8027657,24.7876189 40.1430906,24.7029851 C40.8056229,24.538264 41.2241017,24.3007999 41.4919566,23.6100904 C41.9392103,22.4549444 41.3768571,21.0028807 40.1136052,20.6709904 C38.5409347,20.2576139 37.838615,22.0300269 36.950502,22.9249765 C36.3678998,23.5118173 35.6868948,24.088516 35.0183233,24.5770837 C34.7515342,24.7722309 32.6271679,26.2924912 34.2154692,26.2445787 C34.9018029,26.2239449 35.261311,25.8850601 35.8922265,25.7616067 C36.0687834,25.7269838 36.246406,25.7252352 36.4240286,25.7430712 C36.8570725,25.7864373 37.2894059,25.9445136 37.7078847,26.0165572 Z M29.3411498,39.1900481 C29.0644138,39.0868789 28.8004666,38.9662233 28.5713335,38.8245841 C28.0228349,38.4853496 27.5503588,38.0474923 26.8661565,37.9750989 C26.2146368,37.9062028 26.2483851,38.5881691 26.2085976,39.070092 C26.1283122,40.0465279 26.1332857,41.186286 26.4075349,42.1392902 C26.8732614,43.758523 27.9713243,44.4359429 29.6956845,44.0515937 C30.5916129,43.8519 32.1728093,43.2842941 32.3237885,42.2627436 C32.489688,41.1366248 31.8914551,39.8216539 30.680069,39.564605 C30.2598139,39.4750751 29.7837853,39.355119 29.3411498,39.1900481 Z M6.7329901,20.9542687 C4.95960606,21.4519293 3.54004625,24.4728652 4.63420146,26.056426 C5.60970478,27.4686209 7.16638924,26.89472 7.8576964,25.6657817 C8.19127164,25.0729956 8.38026208,24.1094996 8.98098172,23.7157077 C9.41580184,23.4306808 10.4378423,23.7317951 10.7113811,23.2792493 C11.4140561,22.1083656 7.4875309,20.7426843 6.7329901,20.9542687 Z M21.4461805,16.0007452 C21.4603903,16.5865367 21.3815259,17.2419239 22.1421058,17.2566124 C21.597515,17.2461206 24.9336226,8.48512657 20.6220116,9.195071 C17.1914088,9.76092818 21.1051451,14.0968351 21.4113665,15.6219915 C21.4351679,15.7391499 21.4429833,15.8681989 21.4461805,16.0007452 Z M19.0976545,18.483802 C20.4173904,18.1896822 21.4785078,20.6832308 22.9094355,19.2357136 C23.4440795,18.694687 23.4685914,16.4018812 24.6345062,16.7795857 C25.1169291,16.9359133 24.8007609,17.6755845 25.481766,17.5255519 C25.9705834,17.4181859 26.032396,16.593881 26.1286675,16.2392585 C26.3059348,15.5866692 26.1201416,13.2183226 26.8853397,12.986454 C28.3919346,12.5300612 27.1734436,15.3177297 27.2206912,15.837423 C27.9787845,15.9825594 28.5986873,15.5006365 29.3184141,15.4205492 C30.0068793,15.3439591 30.8115097,15.5030846 31.4680028,15.6961335 C32.7387149,16.069991 33.9589821,16.8425364 34.5493997,18.0483927 C35.248167,19.4759756 34.7000236,20.7140067 33.7937931,21.8904861 C33.0889866,22.8060696 31.3397593,24.1280351 31.6445597,25.4171263 C31.8658774,25.4230716 32.0445658,25.5727545 32.2736989,25.56576 C32.6381805,26.1844258 31.7976703,26.2277919 31.9227167,26.9244467 C32.0253825,27.4969487 32.9166927,27.9715273 33.1667853,28.518849 C33.5437005,29.3452523 33.3021338,29.5886618 34.3650274,29.8317216 C34.8907903,29.9520274 36.004484,29.6575579 36.317455,30.2076774 C36.7298947,30.93266 35.6368052,31.1708237 35.7373396,31.8443965 C36.894018,32.3417074 37.9128612,33.8339896 38.1633091,35.0188623 C38.5114494,36.666423 37.5284859,37.0853952 36.3107054,37.8103778 C35.4815631,38.3038416 35.8151383,38.0394485 35.7643382,38.9994473 C35.6939997,40.332604 34.8893693,40.9544174 33.6623524,39.7359709 C32.8740633,38.9529337 32.6161553,36.9888707 31.5092112,36.537374 C29.6878691,35.7942056 31.5525512,38.061831 31.0051183,38.675251 C30.2999566,39.4663319 29.7631811,37.4032964 29.4828926,37.0598651 C28.8679632,36.3069044 28.0732797,36.2338116 27.2079024,35.7938559 C26.6416415,35.5060311 25.8629441,34.532393 25.4451757,35.6920855 C25.0039612,36.9175265 26.1922564,36.7545541 24.7151468,37.2025535 C23.8732157,37.4578537 23.8590059,37.4746405 23.5311146,38.202421 C23.3833326,38.5301146 23.5609552,38.8326278 23.3350192,39.2148787 C23.1456735,39.535228 22.7012618,39.6901568 22.4582741,39.9730854 C22.0667939,40.4291285 21.9115517,40.9844939 21.5793974,41.4783074 C20.9300092,42.4432023 19.987899,43.0195513 18.7903674,42.6712239 C17.0134309,42.1539787 17.9079383,40.303227 18.3839669,39.1680154 C18.6283756,38.5846719 19.0568013,37.8299625 18.5196706,37.2497665 C17.9651328,36.6506853 17.4500273,36.9287178 17.1139653,37.5120613 C16.6841186,38.2583772 17.1711598,39.1428351 16.3988567,39.8150091 C15.7373902,40.3910083 14.4663228,40.420735 14.0229768,39.5747471 C13.4094684,38.4035136 14.7530057,37.1270126 15.4350765,36.3177459 C15.7491132,35.9449376 16.3569378,35.5539436 16.121055,34.9957804 C16.0034688,34.717748 14.9601137,34.3001748 14.8332911,34.6743819 C15.0869362,33.926667 15.7011551,32.8918269 14.9093136,32.4711061 C14.6585105,32.3382101 14.0656062,32.6302316 13.7185317,32.5043301 C13.3643522,32.3759805 13.2737647,31.8636315 12.8769558,31.7685059 C12.1987927,31.6058832 11.2563272,32.2874998 10.5152857,32.3203741 C9.65097416,32.3581445 8.12874848,32.2976419 7.48184698,31.6544952 C5.47719832,29.6603557 10.5138647,27.9281612 11.7469208,27.3934297 C12.3547454,27.1300858 13.6592057,26.6296274 13.0794456,25.904295 C12.6183373,25.3275963 11.1746208,25.9710928 12.1192178,24.6207994 C12.493291,24.0860679 14.2954499,24.0049314 14.3341716,23.4467682 C14.3817745,22.7606052 13.2172807,22.8837088 13.2623969,22.0485624 C13.307513,21.2113176 14.6151706,21.1798422 14.01303,20.2481713 C13.7760814,19.8813084 11.8815588,19.3381834 12.8332607,18.4680643 C13.4282964,17.9242399 14.1885211,19.2448065 14.9096688,19.2133311 C15.5469787,19.185353 14.2432288,16.8505801 14.1370105,16.6893563 C13.490109,15.7076745 12.7575934,14.7889435 12.8492467,13.525732 C12.9373475,12.3156789 13.6602715,12.1170344 14.6009608,12.890629 C16.2599558,14.2549114 15.6986684,19.0108396 18.6212707,18.5722828 C18.8109716,18.5439549 18.966569,18.5128293 19.0976545,18.483802 L19.0976545,18.483802 Z" id="path-1"></path>
        <linearGradient x1="49.999845%" y1="-1.79060828%" x2="49.999845%" y2="93.3028251%" id="linearGradient-3">
            <stop stop-color="#E14221" offset="0%"></stop>
            <stop stop-color="#C02121" offset="100%"></stop>
        </linearGradient>
    </defs>
    <g id="Dreadful-Cherry-Tomatoes" stroke="none" stroke-width="1" fill="none" fill-rule="evenodd">
        <g transform="translate(-136.000000, -7.000000)" id="header">
            <g id="logo/deadful-tomatoes" transform="translate(136.000000, 7.000000)">
                <g id="iso" transform="translate(-0.000000, 0.000000)">
                    <mask id="mask-2" fill="white">
                        <use xlink:href="#path-1"></use>
                    </mask>
                    <g id="Clip-25"></g>
                    <path d="M38.7903168,14.9061018 C38.5888928,15.0764185 38.2745008,14.9921344 38.0506963,15.0879595 C38.0251187,15.098801 38.0006068,15.1124403 37.9775158,15.1288774 C37.7146344,15.3166805 38.0016725,15.6629095 38.1476783,15.8458164 C38.4038101,16.1675646 39.1235368,16.8016184 39.5619094,16.6879574 C39.8262118,16.619411 39.9096945,16.2172257 39.9178651,15.9860566 C39.9320749,15.5744288 39.8137783,14.9267356 39.4276267,14.6892715 C39.1317075,14.5074138 38.999201,14.7298397 38.7903168,14.9061018 Z M40.9555363,16.4819686 C41.4553663,16.8743615 42.2191435,16.2892694 41.6368966,15.8000022 C41.0720568,15.3257734 40.4002881,16.0462096 40.9555363,16.4819686 Z M36.6766079,17.4702951 C36.3480061,17.7102074 36.2371696,17.9766988 36.2709179,18.2299007 C36.3980957,19.1857027 38.5856956,19.9564995 38.8968904,18.4344906 C39.110748,17.3867106 37.3661388,16.9666892 36.6766079,17.4702951 Z M23.2852849,44.8122484 C23.0451391,45.5449251 21.3747762,43.7333427 22.2014318,43.6658456 C22.5634266,43.6361188 23.463618,44.268424 23.2852849,44.8122484 Z M23.7872464,43.6497581 C23.4739201,44.6062596 21.2944908,42.2421097 22.3730152,42.1539787 C22.8454913,42.1151591 24.019932,42.9401634 23.7872464,43.6497581 Z M21.8209642,43.5609277 C21.962707,44.0904133 21.2365858,45.2668926 20.7633992,44.9675269 C19.7630287,44.334872 20.4397709,43.1150266 20.6490103,42.9744366 C20.8863141,42.8146117 21.5825947,42.6708742 21.8209642,43.5609277 Z M47.5794383,31.6482001 C46.7460331,31.5653149 46.8955913,30.3328794 47.6511978,30.8508241 C47.9822864,31.0777965 48.1979202,31.7094022 47.5794383,31.6482001 Z M49.0032611,31.8559375 C47.9158555,31.7482218 48.1105299,30.1398305 49.0966906,30.8158514 C49.5286687,31.1120696 49.8100229,31.9360248 49.0032611,31.8559375 Z M47.4202885,30.5993709 C47.0845817,30.7399608 45.459335,30.390934 45.3175921,30.0621912 C45.0177652,29.3669353 46.6383938,29.6802901 46.9360893,29.7998965 C47.2735722,29.9352406 47.9851283,30.3633056 47.4202885,30.5993709 Z M43.2777742,27.8994837 C42.9143584,28.3086635 40.8812901,28.0071994 40.7146801,27.529823 C40.4876784,26.879332 42.4454347,26.7523814 42.8855835,26.824425 C43.3488232,26.9003156 43.6681887,27.4598777 43.2777742,27.8994837 Z M40.1086318,29.7841588 C39.1665215,29.5557875 35.6897367,29.0231543 35.5224163,27.8473745 C35.9394741,27.758544 36.3988062,28.0893851 36.8240347,28.1775161 C37.6638343,28.3513301 38.5594075,28.2992209 39.4116407,28.370565 C41.2443507,28.5230457 42.9349626,29.1840284 44.3996385,30.2804205 C44.9651889,30.703939 46.5115712,32.2738605 44.7804614,31.6740798 C43.1722664,31.1166161 41.7914283,30.1919397 40.1086318,29.7841588 Z M25.1528089,10.5894298 C24.9861989,9.27970477 25.6561914,8.30326889 25.9027315,7.09146719 C25.9897666,6.66305245 26.1432325,4.29785336 24.8185232,4.6797545 C23.3510053,5.10292335 24.3304163,7.32298602 24.5218934,8.21338922 C24.9652394,10.2781734 24.0121166,11.9841384 23.8572297,13.9041359 C25.8540629,13.2634373 25.3219056,11.9152423 25.1528089,10.5894298 Z M17.1136101,11.2546093 C17.3455852,10.6027194 16.1089766,10.0693868 15.8485819,10.5058452 C15.4823241,11.1196149 16.9274616,11.7771004 17.1136101,11.2546093 Z M18.4180704,13.2323116 C18.8411675,12.5748261 17.3480719,12.2702145 17.372939,12.134171 C17.285904,12.6087496 18.058207,13.7918737 18.4180704,13.2323116 Z M26.6096695,1.50983516 C28.0690167,1.44303743 26.530805,0.0556731246 25.3524567,0.00251472426 C23.6955931,-0.0726764342 25.439847,1.56369301 26.6096695,1.50983516 Z M26.0291988,3.58930784 C27.8633298,3.69842246 25.4771478,2.17116762 25.7375425,2.13514581 C24.8309568,2.26034783 24.4678962,3.49663037 26.0291988,3.58930784 Z M4.15497569,39.3872938 C4.16776452,39.6768672 3.9137642,39.7548561 3.85514874,39.9765826 C3.84839908,40.0021126 3.84413614,40.0293913 3.84342565,40.059118 C3.83347878,40.4004509 4.27646955,40.6162321 4.50737893,40.7337401 C4.91235845,40.9400786 5.83990367,41.2321001 6.01290808,40.8760787 C6.11699492,40.6616965 5.851982,40.1885168 5.67542514,39.9370635 C5.36138838,39.490463 4.7830492,38.8623546 4.36599134,38.8151415 C4.04627066,38.7794694 4.14147637,39.0875783 4.15497569,39.3872938 Z M2.74003406,42.5047542 C2.85868596,42.6173661 2.99829732,42.6894097 3.1293828,42.6820654 C3.42388107,42.6656283 3.61571348,42.2854758 3.65763241,41.9703724 C3.68214433,41.7839682 3.72086606,41.7168208 3.8508858,41.6339356 C3.94857823,41.5716844 4.25302336,41.5174768 4.2171436,41.3079907 C4.1723827,41.0442971 3.89529145,41.0414993 3.77877102,41.0761222 C3.54217772,41.1460674 3.47183917,41.4143075 3.37201527,41.6461761 C3.28640118,41.8448206 3.10416039,41.7825693 2.92369583,41.710176 C2.71658788,41.6269411 2.51232189,41.5307664 2.46010084,41.8014546 C2.42635255,41.9766674 2.49384914,42.1767109 2.60610662,42.3428309 C2.52191351,42.2658911 2.41747142,42.2025906 2.28887266,42.1655196 C1.57909275,41.9612795 1.7421503,43.0891469 2.4156952,43.2573652 C2.84767336,43.3650809 2.96881197,42.8733657 2.74003406,42.5047542 Z M6.68467675,39.9118833 C7.2910803,40.0633147 7.28930408,39.0305729 6.55749897,38.8200377 C5.84807431,38.6157975 6.01113185,39.7433152 6.68467675,39.9118833 Z M9.60656851,39.6954027 C9.36251506,40.1199704 9.08009513,40.4154892 8.73231008,40.7246472 C8.62396029,40.8211717 7.80085716,41.4569741 8.17386462,41.7014328 C8.69891703,42.0459132 9.53658521,40.3798171 9.77530998,40.1070305 C10.0452963,39.7989217 10.3742534,39.4187691 10.4815374,38.9497862 C10.089702,38.8116443 9.76642885,39.4170205 9.60656851,39.6954027 Z M8.76321641,42.0266783 C8.49713775,41.8797932 8.07688268,42.1819568 8.45379784,42.5285356 C8.89714385,42.9359667 8.68683869,41.9843614 8.76321641,42.0266783 Z M10.9501059,41.8717495 C11.1938041,42.3428309 11.4595275,42.5928852 11.7099753,42.681366 C12.6556381,43.0150049 13.382825,41.0439473 11.8684147,39.9604952 C10.8261253,39.2148787 10.438908,40.8830732 10.9501059,41.8717495 Z M10.8580973,16.1703624 C10.7323405,17.0320881 9.52308589,16.7753889 9.68472245,15.8793901 C9.71420781,15.7167674 9.773889,15.5989096 9.85026672,15.5149753 C9.67939378,15.5999588 9.46837813,15.6076528 9.27547999,15.485948 C8.97742926,15.2977953 9.06446434,15.0557846 9.1372896,14.8043314 C9.20052325,14.585053 9.25274429,14.3587801 9.03000555,14.1552394 C8.77032131,13.9177752 8.47333633,13.7054913 8.37742012,13.3473716 C8.33017251,13.1711095 8.30992353,12.7885089 8.59198822,12.8392192 C8.81650319,12.879088 8.9006963,13.3242896 8.97636353,13.4865626 C9.07725316,13.7019941 9.15327564,13.7841797 9.35754163,13.8981905 C9.70283996,14.0908897 10.1312657,14.5196542 10.1738951,14.9351291 C10.1930783,15.1201343 10.1266475,15.2824073 10.01439,15.3988662 C10.3948576,15.2390412 10.938738,15.6177948 10.8580973,16.1703624 Z M44.8337482,33.3653563 C45.4351783,33.4003289 47.177656,33.2730286 46.6231182,34.3218578 C46.1016183,35.308086 45.0792226,34.592546 44.7296613,34.4652456 C43.6884376,34.0868417 43.9680156,35.429441 43.0383389,35.6966319 C42.5630209,35.8333749 42.5203914,35.4490257 42.0294426,36.0267736 C41.8805948,36.2019865 41.7818367,36.4321064 41.5541245,36.5384232 C41.3036766,36.6552318 41.039019,36.4800189 40.9040258,36.4065764 C40.3803944,36.1222489 40.4670742,35.6235391 40.7967417,34.9104472 C40.908644,34.6684366 41.2450612,34.2260328 41.144882,34.0466232 C41.0397294,33.857771 40.8081096,34.0920876 40.5772002,34.15294 C40.3498433,34.2127432 40.0471744,34.1588853 40.0287016,33.9626889 C39.9889141,33.5384708 40.8482523,33.2083292 41.0773854,32.8662968 C41.3640683,32.4382318 40.7075752,32.5907125 40.4805735,32.6074994 C40.1349199,32.6326797 39.5203457,32.5032809 40.2397173,32.0762651 C40.6770241,31.8167682 41.070991,31.841249 41.3793439,31.9283309 C41.534586,31.9723964 41.6525274,32.0794126 41.811322,32.1133361 C42.0301531,32.1595 42.0667433,32.1021448 42.3697675,31.9668008 C42.9914466,31.6887683 43.1186243,32.3364615 43.270314,32.6155431 C43.5243144,33.0824277 44.1918201,33.3268864 44.8287747,33.3650066 C44.830551,33.3650066 44.8319719,33.3650066 44.8337482,33.3653563 Z M3.19332694,19.8047183 C2.44269383,20.0407836 0.510870439,20.9241923 0.059353791,19.7651992 C-0.364808976,18.675452 1.60467041,18.845419 2.15387948,18.8010038 C3.78907313,18.6688072 2.0377143,17.6241747 2.85797547,16.9792794 C3.27752005,16.6498372 3.73436537,16.9652903 3.70559051,16.2445044 C3.69706463,16.0262752 3.57095258,15.7821662 3.7283262,15.5887675 C3.90204111,15.3757842 4.40116061,15.4111066 4.63917489,15.4153033 C5.56103619,15.4306913 5.98519895,15.9031715 6.3479043,16.6697716 C6.47117439,16.9303177 6.54009195,17.4646995 6.84844479,17.5762622 C7.1731389,17.69412 7.20013753,17.38741 7.4097322,17.2321315 C7.61612966,17.0793011 8.03176654,16.9918695 8.26125494,17.1544923 C8.75682199,17.506317 8.08682955,18.1746439 8.17670659,18.5740314 C8.28931931,19.0734406 8.90673547,18.649922 9.15860431,18.5345123 C9.54155864,18.3592994 10.4076464,18.1994745 10.0055089,18.8905337 C9.76145542,19.3098556 9.26837508,19.4633854 8.81010877,19.5242378 C8.57990989,19.554664 8.32662006,19.513746 8.10246034,19.554664 C7.79375226,19.6116694 7.81151452,19.6777677 7.59517019,19.9299203 C7.15146894,20.4475153 6.31557699,19.9400624 5.84061416,19.7644998 C5.04593065,19.47038 3.99582584,19.5536148 3.19972135,19.8029697 C3.19758988,19.8033194 3.19545841,19.8040189 3.19332694,19.8047183 Z M38.7523056,9.73819597 C38.2151749,9.58921256 38.2869344,9.6189393 37.8457199,9.91515749 C37.4247543,10.1973866 35.9217119,11.2654508 37.1920687,11.4333194 C37.6613476,11.495221 37.9437675,11.1269592 38.3395107,10.9737791 C38.6819671,10.8415825 39.4766506,10.95979 39.7334928,10.7226756 C40.3548167,10.1473758 39.1764684,9.85605374 38.7523056,9.73819597 Z M36.1895667,12.3702362 C36.4737629,11.7917889 35.856702,11.4546527 35.9138965,10.9178228 C35.9767749,10.3271351 38.560118,8.56836144 36.5203,8.34663495 C34.9319987,8.17387015 34.7888349,10.7240745 34.0296759,11.587199 C33.6453006,12.0236575 32.0037126,13.4599834 32.104247,14.1111739 C32.249187,15.0522874 33.6886405,13.5897319 34.0719501,13.4113715 C34.6421187,13.1459292 35.8829901,12.9934485 36.1895667,12.3702362 Z M28.586609,12.4804 C28.8892779,12.7458423 29.3386631,12.8290772 29.9191337,12.573777 C31.4111636,11.9173407 31.0388666,8.0881872 28.8725814,9.74763858 C27.9649299,10.4428945 27.9244319,11.8988052 28.586609,12.4804 Z M13.4055607,34.6586442 C13.3504977,34.2676502 12.5682477,33.8812026 12.1135339,33.9431042 C11.65882,34.0050057 11.3344812,34.3725681 11.3895442,34.7639118 C11.4442519,35.1552556 11.8577573,35.4220968 12.3124712,35.3601952 C12.767185,35.2982937 13.4602684,35.049988 13.4055607,34.6586442 Z M9.95080111,34.5761088 C8.70673242,33.9647872 6.56957731,34.393202 6.18733347,35.1468622 C5.80544488,35.9008721 6.50421219,37.0074062 7.74828088,37.6187278 C8.99270481,38.2296997 10.3110197,38.11429 10.6929083,37.3606298 C11.0751522,36.6069695 11.1948698,35.1874304 9.95080111,34.5761088 Z M37.7078847,26.0165572 C38.2155301,26.1043385 38.3725485,26.0746117 38.7370301,25.6535413 C38.9228233,25.4388093 38.8510638,25.163225 39.1505355,24.9394001 C39.459954,24.708231 39.8027657,24.7876189 40.1430906,24.7029851 C40.8056229,24.538264 41.2241017,24.3007999 41.4919566,23.6100904 C41.9392103,22.4549444 41.3768571,21.0028807 40.1136052,20.6709904 C38.5409347,20.2576139 37.838615,22.0300269 36.950502,22.9249765 C36.3678998,23.5118173 35.6868948,24.088516 35.0183233,24.5770837 C34.7515342,24.7722309 32.6271679,26.2924912 34.2154692,26.2445787 C34.9018029,26.2239449 35.261311,25.8850601 35.8922265,25.7616067 C36.0687834,25.7269838 36.246406,25.7252352 36.4240286,25.7430712 C36.8570725,25.7864373 37.2894059,25.9445136 37.7078847,26.0165572 Z M29.3411498,39.1900481 C29.0644138,39.0868789 28.8004666,38.9662233 28.5713335,38.8245841 C28.0228349,38.4853496 27.5503588,38.0474923 26.8661565,37.9750989 C26.2146368,37.9062028 26.2483851,38.5881691 26.2085976,39.070092 C26.1283122,40.0465279 26.1332857,41.186286 26.4075349,42.1392902 C26.8732614,43.758523 27.9713243,44.4359429 29.6956845,44.0515937 C30.5916129,43.8519 32.1728093,43.2842941 32.3237885,42.2627436 C32.489688,41.1366248 31.8914551,39.8216539 30.680069,39.564605 C30.2598139,39.4750751 29.7837853,39.355119 29.3411498,39.1900481 Z M6.7329901,20.9542687 C4.95960606,21.4519293 3.54004625,24.4728652 4.63420146,26.056426 C5.60970478,27.4686209 7.16638924,26.89472 7.8576964,25.6657817 C8.19127164,25.0729956 8.38026208,24.1094996 8.98098172,23.7157077 C9.41580184,23.4306808 10.4378423,23.7317951 10.7113811,23.2792493 C11.4140561,22.1083656 7.4875309,20.7426843 6.7329901,20.9542687 Z M21.4461805,16.0007452 C21.4603903,16.5865367 21.3815259,17.2419239 22.1421058,17.2566124 C21.597515,17.2461206 24.9336226,8.48512657 20.6220116,9.195071 C17.1914088,9.76092818 21.1051451,14.0968351 21.4113665,15.6219915 C21.4351679,15.7391499 21.4429833,15.8681989 21.4461805,16.0007452 Z M19.0976545,18.483802 C20.4173904,18.1896822 21.4785078,20.6832308 22.9094355,19.2357136 C23.4440795,18.694687 23.4685914,16.4018812 24.6345062,16.7795857 C25.1169291,16.9359133 24.8007609,17.6755845 25.481766,17.5255519 C25.9705834,17.4181859 26.032396,16.593881 26.1286675,16.2392585 C26.3059348,15.5866692 26.1201416,13.2183226 26.8853397,12.986454 C28.3919346,12.5300612 27.1734436,15.3177297 27.2206912,15.837423 C27.9787845,15.9825594 28.5986873,15.5006365 29.3184141,15.4205492 C30.0068793,15.3439591 30.8115097,15.5030846 31.4680028,15.6961335 C32.7387149,16.069991 33.9589821,16.8425364 34.5493997,18.0483927 C35.248167,19.4759756 34.7000236,20.7140067 33.7937931,21.8904861 C33.0889866,22.8060696 31.3397593,24.1280351 31.6445597,25.4171263 C31.8658774,25.4230716 32.0445658,25.5727545 32.2736989,25.56576 C32.6381805,26.1844258 31.7976703,26.2277919 31.9227167,26.9244467 C32.0253825,27.4969487 32.9166927,27.9715273 33.1667853,28.518849 C33.5437005,29.3452523 33.3021338,29.5886618 34.3650274,29.8317216 C34.8907903,29.9520274 36.004484,29.6575579 36.317455,30.2076774 C36.7298947,30.93266 35.6368052,31.1708237 35.7373396,31.8443965 C36.894018,32.3417074 37.9128612,33.8339896 38.1633091,35.0188623 C38.5114494,36.666423 37.5284859,37.0853952 36.3107054,37.8103778 C35.4815631,38.3038416 35.8151383,38.0394485 35.7643382,38.9994473 C35.6939997,40.332604 34.8893693,40.9544174 33.6623524,39.7359709 C32.8740633,38.9529337 32.6161553,36.9888707 31.5092112,36.537374 C29.6878691,35.7942056 31.5525512,38.061831 31.0051183,38.675251 C30.2999566,39.4663319 29.7631811,37.4032964 29.4828926,37.0598651 C28.8679632,36.3069044 28.0732797,36.2338116 27.2079024,35.7938559 C26.6416415,35.5060311 25.8629441,34.532393 25.4451757,35.6920855 C25.0039612,36.9175265 26.1922564,36.7545541 24.7151468,37.2025535 C23.8732157,37.4578537 23.8590059,37.4746405 23.5311146,38.202421 C23.3833326,38.5301146 23.5609552,38.8326278 23.3350192,39.2148787 C23.1456735,39.535228 22.7012618,39.6901568 22.4582741,39.9730854 C22.0667939,40.4291285 21.9115517,40.9844939 21.5793974,41.4783074 C20.9300092,42.4432023 19.987899,43.0195513 18.7903674,42.6712239 C17.0134309,42.1539787 17.9079383,40.303227 18.3839669,39.1680154 C18.6283756,38.5846719 19.0568013,37.8299625 18.5196706,37.2497665 C17.9651328,36.6506853 17.4500273,36.9287178 17.1139653,37.5120613 C16.6841186,38.2583772 17.1711598,39.1428351 16.3988567,39.8150091 C15.7373902,40.3910083 14.4663228,40.420735 14.0229768,39.5747471 C13.4094684,38.4035136 14.7530057,37.1270126 15.4350765,36.3177459 C15.7491132,35.9449376 16.3569378,35.5539436 16.121055,34.9957804 C16.0034688,34.717748 14.9601137,34.3001748 14.8332911,34.6743819 C15.0869362,33.926667 15.7011551,32.8918269 14.9093136,32.4711061 C14.6585105,32.3382101 14.0656062,32.6302316 13.7185317,32.5043301 C13.3643522,32.3759805 13.2737647,31.8636315 12.8769558,31.7685059 C12.1987927,31.6058832 11.2563272,32.2874998 10.5152857,32.3203741 C9.65097416,32.3581445 8.12874848,32.2976419 7.48184698,31.6544952 C5.47719832,29.6603557 10.5138647,27.9281612 11.7469208,27.3934297 C12.3547454,27.1300858 13.6592057,26.6296274 13.0794456,25.904295 C12.6183373,25.3275963 11.1746208,25.9710928 12.1192178,24.6207994 C12.493291,24.0860679 14.2954499,24.0049314 14.3341716,23.4467682 C14.3817745,22.7606052 13.2172807,22.8837088 13.2623969,22.0485624 C13.307513,21.2113176 14.6151706,21.1798422 14.01303,20.2481713 C13.7760814,19.8813084 11.8815588,19.3381834 12.8332607,18.4680643 C13.4282964,17.9242399 14.1885211,19.2448065 14.9096688,19.2133311 C15.5469787,19.185353 14.2432288,16.8505801 14.1370105,16.6893563 C13.490109,15.7076745 12.7575934,14.7889435 12.8492467,13.525732 C12.9373475,12.3156789 13.6602715,12.1170344 14.6009608,12.890629 C16.2599558,14.2549114 15.6986684,19.0108396 18.6212707,18.5722828 C18.8109716,18.5439549 18.966569,18.5128293 19.0976545,18.483802 L19.0976545,18.483802 Z" id="Fill-24" fill="url(#linearGradient-3)" mask="url(#mask-2)"></path>
                </g>
                <g id="Dreadful-Cherry-Toma" transform="translate(19.801562, 16.405469)" fill="#FFFFFF" fill-rule="nonzero">
                    <path d="M5.70507812,13.4945313 L0,13.4945313 L0,0.2515625 L5.70507812,0.2515625 C6.52565104,0.263541667 7.20846354,0.359375 7.75351562,0.5390625 C8.68190104,0.84453125 9.43359375,1.40455729 10.0085937,2.21914063 C10.4697917,2.87799479 10.7842448,3.59075521 10.9519531,4.35742188 C11.1196615,5.12408854 11.2035156,5.85481771 11.2035156,6.54960938 C11.2035156,8.31054688 10.8501302,9.80195313 10.1433594,11.0238281 C9.18502604,12.6709635 7.70559896,13.4945313 5.70507812,13.4945313 Z M7.7625,3.6296875 C7.33723958,2.9109375 6.49570312,2.5515625 5.23789062,2.5515625 L2.68632813,2.5515625 L2.68632813,11.1945312 L5.23789062,11.1945312 C6.54361979,11.1945312 7.45403646,10.550651 7.96914062,9.26289062 C8.25065104,8.55611979 8.39140625,7.71458333 8.39140625,6.73828125 C8.39140625,5.390625 8.18177083,4.35442708 7.7625,3.6296875 Z" id="Shape"></path>
                    <path d="M18.0046875,6.06445312 C16.9744792,6.06445312 16.2826823,6.39986979 15.9292969,7.07070312 C15.7316406,7.44804688 15.6328125,8.02903646 15.6328125,8.81367188 L15.6328125,13.4945313 L13.0542969,13.4945313 L13.0542969,3.7015625 L15.4980469,3.7015625 L15.4980469,5.40859375 C15.8933594,4.75572917 16.2377604,4.30950521 16.53125,4.06992188 C17.0104167,3.66861979 17.6333333,3.46796875 18.4,3.46796875 C18.4479167,3.46796875 18.4883464,3.46946615 18.5212891,3.47246094 C18.5542318,3.47545573 18.6276042,3.47994792 18.7414062,3.4859375 L18.7414062,6.109375 C18.5796875,6.09140625 18.4359375,6.07942708 18.3101562,6.0734375 C18.184375,6.06744792 18.0825521,6.06445312 18.0046875,6.06445312 Z" id="Path"></path>
                    <path d="M28.6242187,10.6195313 C28.5583333,11.2005208 28.2558594,11.7904948 27.7167969,12.3894531 C26.8782552,13.3417969 25.7042969,13.8179688 24.1949219,13.8179688 C22.9490885,13.8179688 21.85,13.4166667 20.8976562,12.6140625 C19.9453125,11.8114583 19.4691406,10.5057292 19.4691406,8.696875 C19.4691406,7.00182292 19.8988932,5.70208333 20.7583984,4.79765625 C21.6179036,3.89322917 22.7334635,3.44101563 24.1050781,3.44101563 C24.9196615,3.44101563 25.6533854,3.59375 26.30625,3.89921875 C26.9591146,4.2046875 27.4981771,4.68684896 27.9234375,5.34570312 C28.3067708,5.92669271 28.5553385,6.60052083 28.6691406,7.3671875 C28.735026,7.81640625 28.7619792,8.46328125 28.75,9.3078125 L22.0476562,9.3078125 C22.0835937,10.2901042 22.3920573,10.9789063 22.9730469,11.3742188 C23.3264323,11.6197917 23.7516927,11.7425781 24.2488281,11.7425781 C24.7759115,11.7425781 25.2041667,11.5928385 25.5335937,11.2933594 C25.7132812,11.1316406 25.8720052,10.9070312 26.0097656,10.6195313 L28.6242187,10.6195313 Z M26.090625,7.61875 C26.0486979,6.94192708 25.8435547,6.42832031 25.4751953,6.07792969 C25.1068359,5.72753906 24.6501302,5.55234375 24.1050781,5.55234375 C23.5121094,5.55234375 23.0524089,5.73802083 22.7259766,6.109375 C22.3995443,6.48072917 22.194401,6.98385417 22.1105469,7.61875 L26.090625,7.61875 Z" id="Shape"></path>
                    <path d="M30.8433594,4.76171875 C31.5201823,3.89921875 32.6821615,3.46796875 34.3292969,3.46796875 C35.4014323,3.46796875 36.353776,3.68059896 37.1863281,4.10585938 C38.0188802,4.53111979 38.4351562,5.33372396 38.4351562,6.51367188 L38.4351562,11.0058594 C38.4351562,11.3173177 38.4411458,11.6946615 38.453125,12.1378906 C38.4710937,12.4733073 38.5220052,12.7009115 38.6058594,12.8207031 C38.6897135,12.9404948 38.8154948,13.0393229 38.9832031,13.1171875 L38.9832031,13.4945313 L36.1980469,13.4945313 C36.1201823,13.296875 36.066276,13.1111979 36.0363281,12.9375 C36.0063802,12.7638021 35.9824219,12.5661458 35.9644531,12.3445313 C35.6110677,12.7278646 35.203776,13.0542969 34.7425781,13.3238281 C34.1915365,13.641276 33.5686198,13.8 32.8738281,13.8 C31.9873698,13.8 31.2551432,13.5469401 30.6771484,13.0408203 C30.0991536,12.5347005 29.8101562,11.8174479 29.8101562,10.8890625 C29.8101562,9.68515625 30.274349,8.81367188 31.2027344,8.27460938 C31.711849,7.98111979 32.4605469,7.77148438 33.4488281,7.64570313 L34.3203125,7.53789063 C34.7934896,7.47799479 35.131901,7.403125 35.3355469,7.31328125 C35.7009115,7.15755208 35.8835937,6.91497396 35.8835937,6.58554688 C35.8835937,6.18424479 35.7443359,5.90722656 35.4658203,5.75449219 C35.1873047,5.60175781 34.7785156,5.52539062 34.2394531,5.52539062 C33.6345052,5.52539062 33.20625,5.67513021 32.9546875,5.97460938 C32.775,6.19622396 32.6552083,6.49570313 32.5953125,6.87304688 L30.1246094,6.87304688 C30.1785156,6.01653646 30.418099,5.31276042 30.8433594,4.76171875 Z M32.7480469,11.64375 C32.9876302,11.8414063 33.2811198,11.9402344 33.6285156,11.9402344 C34.1795573,11.9402344 34.6871745,11.7785156 35.1513672,11.4550781 C35.6155599,11.1316406 35.8566406,10.5416667 35.8746094,9.68515625 L35.8746094,8.7328125 C35.7128906,8.83463542 35.5496745,8.91699219 35.3849609,8.97988281 C35.2202474,9.04277344 34.9941406,9.10117188 34.7066406,9.15507813 L34.1316406,9.26289063 C33.5925781,9.35872396 33.20625,9.47552083 32.9726562,9.61328125 C32.5773437,9.846875 32.3796875,10.2092448 32.3796875,10.7003906 C32.3796875,11.1376302 32.502474,11.4520833 32.7480469,11.64375 Z" id="Shape"></path>
                    <path d="M49.6207031,0.26953125 L49.6207031,13.4945313 L47.1320312,13.4945313 L47.1320312,12.1378906 C46.7666667,12.7188802 46.3503906,13.1411458 45.8832031,13.4046875 C45.4160156,13.6682292 44.835026,13.8 44.1402344,13.8 C42.996224,13.8 42.0333984,13.3373047 41.2517578,12.4119141 C40.4701172,11.4865234 40.0792969,10.2990885 40.0792969,8.84960938 C40.0792969,7.17851563 40.4641276,5.86380208 41.2337891,4.90546875 C42.0034505,3.94713542 43.0321615,3.46796875 44.3199219,3.46796875 C44.9128906,3.46796875 45.439974,3.59824219 45.9011719,3.85878906 C46.3623698,4.11933594 46.7367187,4.48020833 47.0242187,4.94140625 L47.0242187,0.26953125 L49.6207031,0.26953125 Z M42.7207031,8.6609375 C42.7207031,9.56536458 42.9003906,10.2871094 43.2597656,10.8261719 C43.613151,11.371224 44.1522135,11.64375 44.8769531,11.64375 C45.6016927,11.64375 46.1527344,11.3742188 46.5300781,10.8351563 C46.9074219,10.2960938 47.0960937,9.59830729 47.0960937,8.74179688 C47.0960937,7.54388021 46.7936198,6.68736979 46.1886719,6.17226563 C45.8173177,5.86080729 45.3860677,5.70507813 44.8949219,5.70507813 C44.146224,5.70507813 43.5966797,5.98808594 43.2462891,6.55410156 C42.8958984,7.12011719 42.7207031,7.82239583 42.7207031,8.6609375 Z" id="Shape"></path>
                    <path d="M56.5386719,0.170703125 L56.5386719,2.25507813 C56.3949219,2.23710938 56.1538411,2.22363281 55.8154297,2.21464844 C55.4770182,2.20566406 55.2434245,2.28053385 55.1146484,2.43925781 C54.9858724,2.59798177 54.9214844,2.77317708 54.9214844,2.96484375 L54.9214844,3.79140625 L56.6015625,3.79140625 L56.6015625,5.59726563 L54.9214844,5.59726563 L54.9214844,13.4945313 L52.3699219,13.4945313 L52.3699219,5.59726563 L50.9414062,5.59726563 L50.9414062,3.79140625 L52.3429687,3.79140625 L52.3429687,3.1625 C52.3429687,2.11432292 52.5196615,1.39257812 52.8730469,0.997265625 C53.244401,0.410286458 54.1398437,0.116796875 55.559375,0.116796875 C55.7210937,0.116796875 55.8678385,0.121289063 55.9996094,0.130273438 C56.1313802,0.139257813 56.3110677,0.152734375 56.5386719,0.170703125 Z" id="Path"></path>
                    <path d="M64.3550781,12.1109375 C64.3311198,12.1408854 64.271224,12.2307292 64.1753906,12.3804688 C64.0795573,12.5302083 63.9657552,12.6619792 63.8339844,12.7757813 C63.4326823,13.1351563 63.0448568,13.3807292 62.6705078,13.5125 C62.2961589,13.6442708 61.8574219,13.7101563 61.3542969,13.7101563 C59.9048177,13.7101563 58.9285156,13.1890625 58.4253906,12.146875 C58.1438802,11.571875 58.003125,10.724349 58.003125,9.60429688 L58.003125,3.7015625 L60.6265625,3.7015625 L60.6265625,9.60429688 C60.6265625,10.1613281 60.6924479,10.580599 60.8242187,10.8621094 C61.0578125,11.3592448 61.5160156,11.6078125 62.1988281,11.6078125 C63.0733073,11.6078125 63.6722656,11.2544271 63.9957031,10.5476563 C64.1634115,10.1643229 64.2472656,9.65820313 64.2472656,9.02929688 L64.2472656,3.7015625 L66.84375,3.7015625 L66.84375,13.4945313 L64.3550781,13.4945313 L64.3550781,12.1109375 Z" id="Path"></path>
                    <polygon id="Path" points="69.3683594 0.2515625 71.9289062 0.2515625 71.9289062 13.4945313 69.3683594 13.4945313"></polygon>
                    <path d="M89.0890625,12.50625 C88.1007812,13.4106771 86.8369792,13.8628906 85.2976562,13.8628906 C83.3929687,13.8628906 81.8955729,13.2519531 80.8054687,12.0300781 C79.7153646,10.8022135 79.1703125,9.11914062 79.1703125,6.98085937 C79.1703125,4.66888021 79.7902344,2.88697917 81.0300781,1.63515625 C82.1082031,0.545052083 83.4798177,0 85.1449219,0 C87.3730469,0 89.0022135,0.730729167 90.0324219,2.1921875 C90.6014323,3.01276042 90.906901,3.83632812 90.9488281,4.66289063 L88.1816406,4.66289063 C88.0019531,4.02799479 87.7713542,3.54882812 87.4898437,3.22539063 C86.9867187,2.65039062 86.2410156,2.36289062 85.2527344,2.36289062 C84.2464844,2.36289062 83.4528646,2.7686849 82.871875,3.58027344 C82.2908854,4.39186198 82.0003906,5.54036458 82.0003906,7.02578125 C82.0003906,8.51119792 82.3073568,9.62376302 82.9212891,10.3634766 C83.5352214,11.1031901 84.3153646,11.4730469 85.2617187,11.4730469 C86.2320312,11.4730469 86.9717448,11.155599 87.4808594,10.5207031 C87.7623698,10.1792969 87.9959635,9.6671875 88.1816406,8.984375 L90.921875,8.984375 C90.6822917,10.4278646 90.0713542,11.6018229 89.0890625,12.50625 Z" id="Path"></path>
                    <path d="M101.676172,7.74453125 L101.676172,13.4945313 L99.0617187,13.4945313 L99.0617187,7.53789063 C99.0617187,7.01080729 98.971875,6.58554688 98.7921875,6.26210938 C98.5585937,5.80690104 98.1153646,5.57929688 97.4625,5.57929688 C96.7856771,5.57929688 96.2720703,5.80540365 95.9216797,6.25761719 C95.5712891,6.70983073 95.3960937,7.35520833 95.3960937,8.19375 L95.3960937,13.4945313 L92.8445312,13.4945313 L92.8445312,0.296484375 L95.3960937,0.296484375 L95.3960937,4.97734375 C95.7674479,4.40833333 96.1972005,4.01152344 96.6853516,3.78691406 C97.1735026,3.56230469 97.6871094,3.45 98.2261719,3.45 C98.8311198,3.45 99.3806641,3.55481771 99.8748047,3.76445313 C100.368945,3.97408854 100.77474,4.29453125 101.092187,4.72578125 C101.361719,5.09114583 101.526432,5.46699219 101.586328,5.85332031 C101.646224,6.23964844 101.676172,6.87005208 101.676172,7.74453125 Z" id="Path"></path>
                    <path d="M112.448437,10.6195313 C112.382552,11.2005208 112.080078,11.7904948 111.541016,12.3894531 C110.702474,13.3417969 109.528516,13.8179688 108.019141,13.8179688 C106.773307,13.8179688 105.674219,13.4166667 104.721875,12.6140625 C103.769531,11.8114583 103.293359,10.5057292 103.293359,8.696875 C103.293359,7.00182292 103.723112,5.70208333 104.582617,4.79765625 C105.442122,3.89322917 106.557682,3.44101563 107.929297,3.44101563 C108.74388,3.44101563 109.477604,3.59375 110.130469,3.89921875 C110.783333,4.2046875 111.322396,4.68684896 111.747656,5.34570312 C112.13099,5.92669271 112.379557,6.60052083 112.493359,7.3671875 C112.559245,7.81640625 112.586198,8.46328125 112.574219,9.3078125 L105.871875,9.3078125 C105.907812,10.2901042 106.216276,10.9789063 106.797266,11.3742188 C107.150651,11.6197917 107.575911,11.7425781 108.073047,11.7425781 C108.60013,11.7425781 109.028385,11.5928385 109.357812,11.2933594 C109.5375,11.1316406 109.696224,10.9070312 109.833984,10.6195313 L112.448437,10.6195313 Z M109.914844,7.61875 C109.872917,6.94192708 109.667773,6.42832031 109.299414,6.07792969 C108.931055,5.72753906 108.474349,5.55234375 107.929297,5.55234375 C107.336328,5.55234375 106.876628,5.73802083 106.550195,6.109375 C106.223763,6.48072917 106.01862,6.98385417 105.934766,7.61875 L109.914844,7.61875 Z" id="Shape"></path>
                    <path d="M119.222656,6.06445312 C118.192448,6.06445312 117.500651,6.39986979 117.147266,7.07070312 C116.949609,7.44804688 116.850781,8.02903646 116.850781,8.81367188 L116.850781,13.4945313 L114.272266,13.4945313 L114.272266,3.7015625 L116.716016,3.7015625 L116.716016,5.40859375 C117.111328,4.75572917 117.455729,4.30950521 117.749219,4.06992188 C118.228385,3.66861979 118.851302,3.46796875 119.617969,3.46796875 C119.665885,3.46796875 119.706315,3.46946615 119.739258,3.47246094 C119.772201,3.47545573 119.845573,3.47994792 119.959375,3.4859375 L119.959375,6.109375 C119.797656,6.09140625 119.653906,6.07942708 119.528125,6.0734375 C119.402344,6.06744792 119.300521,6.06445312 119.222656,6.06445312 Z" id="Path"></path>
                    <path d="M126.383203,6.06445312 C125.352995,6.06445312 124.661198,6.39986979 124.307812,7.07070312 C124.110156,7.44804688 124.011328,8.02903646 124.011328,8.81367188 L124.011328,13.4945313 L121.432812,13.4945313 L121.432812,3.7015625 L123.876562,3.7015625 L123.876562,5.40859375 C124.271875,4.75572917 124.616276,4.30950521 124.909766,4.06992188 C125.388932,3.66861979 126.011849,3.46796875 126.778516,3.46796875 C126.826432,3.46796875 126.866862,3.46946615 126.899805,3.47246094 C126.932747,3.47545573 127.00612,3.47994792 127.119922,3.4859375 L127.119922,6.109375 C126.958203,6.09140625 126.814453,6.07942708 126.688672,6.0734375 C126.562891,6.06744792 126.461068,6.06445312 126.383203,6.06445312 Z" id="Path"></path>
                    <path d="M132.600391,10.925 L134.621875,3.7015625 L137.344141,3.7015625 L133.983984,13.3328125 C133.337109,15.1895833 132.825,16.3410807 132.447656,16.7873047 C132.070312,17.2335286 131.315625,17.4566406 130.183594,17.4566406 C129.95599,17.4566406 129.773307,17.4551432 129.635547,17.4521484 C129.497786,17.4491536 129.291146,17.4386719 129.015625,17.4207031 L129.015625,15.3722656 L129.339062,15.3902344 C129.590625,15.4022135 129.830208,15.3932292 130.057812,15.3632813 C130.285417,15.3333333 130.477083,15.2644531 130.632812,15.1566406 C130.782552,15.0548177 130.92181,14.8421875 131.050586,14.51875 C131.179362,14.1953125 131.231771,13.9976563 131.207812,13.9257813 L127.614062,3.7015625 L130.462109,3.7015625 L132.600391,10.925 Z" id="Path"></path>
                    <polygon id="Path" points="153.794531 0.2515625 153.794531 2.59648438 149.832422 2.59648438 149.832422 13.4945313 147.047266 13.4945313 147.047266 2.59648438 143.067187 2.59648438 143.067187 0.2515625"></polygon>
                    <path d="M163.371875,4.94140625 C164.198437,5.97760417 164.611719,7.20247396 164.611719,8.61601563 C164.611719,10.0535156 164.198437,11.2828776 163.371875,12.3041016 C162.545312,13.3253255 161.290495,13.8359375 159.607422,13.8359375 C157.924349,13.8359375 156.669531,13.3253255 155.842969,12.3041016 C155.016406,11.2828776 154.603125,10.0535156 154.603125,8.61601563 C154.603125,7.20247396 155.016406,5.97760417 155.842969,4.94140625 C156.669531,3.90520833 157.924349,3.38710938 159.607422,3.38710938 C161.290495,3.38710938 162.545312,3.90520833 163.371875,4.94140625 Z M159.598437,5.55234375 C158.84974,5.55234375 158.273242,5.81738281 157.868945,6.34746094 C157.464648,6.87753906 157.2625,7.63372396 157.2625,8.61601562 C157.2625,9.59830729 157.464648,10.3559896 157.868945,10.8890625 C158.273242,11.4221354 158.84974,11.6886719 159.598437,11.6886719 C160.347135,11.6886719 160.922135,11.4221354 161.323437,10.8890625 C161.72474,10.3559896 161.925391,9.59830729 161.925391,8.61601562 C161.925391,7.63372396 161.72474,6.87753906 161.323437,6.34746094 C160.922135,5.81738281 160.347135,5.55234375 159.598437,5.55234375 Z" id="Shape"></path>
                    <path d="M171.942969,6.396875 C171.727344,5.92369792 171.305078,5.68710938 170.676172,5.68710938 C169.945443,5.68710938 169.454297,5.92369792 169.202734,6.396875 C169.064974,6.66640625 168.996094,7.06770833 168.996094,7.60078125 L168.996094,13.4945313 L166.399609,13.4945313 L166.399609,3.71953125 L168.888281,3.71953125 L168.888281,5.14804688 C169.205729,4.63893229 169.505208,4.2765625 169.786719,4.0609375 C170.283854,3.67760417 170.927734,3.4859375 171.718359,3.4859375 C172.467057,3.4859375 173.072005,3.65065104 173.533203,3.98007813 C173.904557,4.28554688 174.186068,4.67786458 174.377734,5.15703125 C174.713151,4.58203125 175.129427,4.15976563 175.626562,3.89023438 C176.153646,3.62070313 176.740625,3.4859375 177.3875,3.4859375 C177.81875,3.4859375 178.24401,3.56979167 178.663281,3.7375 C179.082552,3.90520833 179.462891,4.19869792 179.804297,4.61796875 C180.079818,4.959375 180.265495,5.37864583 180.361328,5.87578125 C180.421224,6.20520833 180.451172,6.68736979 180.451172,7.32226563 L180.433203,13.4945313 L177.809766,13.4945313 L177.809766,7.259375 C177.809766,6.88802083 177.74987,6.58255208 177.630078,6.34296875 C177.402474,5.88776042 176.983203,5.66015625 176.372266,5.66015625 C175.665495,5.66015625 175.177344,5.95364583 174.907812,6.540625 C174.770052,6.85208333 174.701172,7.22643229 174.701172,7.66367188 L174.701172,13.4945313 L172.122656,13.4945313 L172.122656,7.66367188 C172.122656,7.08268229 172.06276,6.66041667 171.942969,6.396875 Z" id="Path"></path>
                    <path d="M183.173437,4.76171875 C183.85026,3.89921875 185.01224,3.46796875 186.659375,3.46796875 C187.73151,3.46796875 188.683854,3.68059896 189.516406,4.10585938 C190.348958,4.53111979 190.765234,5.33372396 190.765234,6.51367188 L190.765234,11.0058594 C190.765234,11.3173177 190.771224,11.6946615 190.783203,12.1378906 C190.801172,12.4733073 190.852083,12.7009115 190.935937,12.8207031 C191.019792,12.9404948 191.145573,13.0393229 191.313281,13.1171875 L191.313281,13.4945313 L188.528125,13.4945313 C188.45026,13.296875 188.396354,13.1111979 188.366406,12.9375 C188.336458,12.7638021 188.3125,12.5661458 188.294531,12.3445313 C187.941146,12.7278646 187.533854,13.0542969 187.072656,13.3238281 C186.521615,13.641276 185.898698,13.8 185.203906,13.8 C184.317448,13.8 183.585221,13.5469401 183.007227,13.0408203 C182.429232,12.5347005 182.140234,11.8174479 182.140234,10.8890625 C182.140234,9.68515625 182.604427,8.81367188 183.532812,8.27460938 C184.041927,7.98111979 184.790625,7.77148438 185.778906,7.64570313 L186.650391,7.53789063 C187.123568,7.47799479 187.461979,7.403125 187.665625,7.31328125 C188.03099,7.15755208 188.213672,6.91497396 188.213672,6.58554688 C188.213672,6.18424479 188.074414,5.90722656 187.795898,5.75449219 C187.517383,5.60175781 187.108594,5.52539062 186.569531,5.52539062 C185.964583,5.52539062 185.536328,5.67513021 185.284766,5.97460938 C185.105078,6.19622396 184.985286,6.49570313 184.925391,6.87304688 L182.454687,6.87304688 C182.508594,6.01653646 182.748177,5.31276042 183.173437,4.76171875 Z M185.078125,11.64375 C185.317708,11.8414063 185.611198,11.9402344 185.958594,11.9402344 C186.509635,11.9402344 187.017253,11.7785156 187.481445,11.4550781 C187.945638,11.1316406 188.186719,10.5416667 188.204687,9.68515625 L188.204687,8.7328125 C188.042969,8.83463542 187.879753,8.91699219 187.715039,8.97988281 C187.550326,9.04277344 187.324219,9.10117188 187.036719,9.15507813 L186.461719,9.26289063 C185.922656,9.35872396 185.536328,9.47552083 185.302734,9.61328125 C184.907422,9.846875 184.709766,10.2092448 184.709766,10.7003906 C184.709766,11.1376302 184.832552,11.4520833 185.078125,11.64375 Z" id="Shape"></path>
                    <path d="M197.521484,11.6707031 L197.521484,13.584375 L196.308594,13.6292969 C195.098698,13.671224 194.272135,13.4615885 193.828906,13.0003906 C193.541406,12.706901 193.397656,12.2546875 193.397656,11.64375 L193.397656,5.61523438 L192.032031,5.61523438 L192.032031,3.79140625 L193.397656,3.79140625 L193.397656,1.06015625 L195.93125,1.06015625 L195.93125,3.79140625 L197.521484,3.79140625 L197.521484,5.61523438 L195.93125,5.61523438 L195.93125,10.7902344 C195.93125,11.1915365 195.982161,11.4416016 196.083984,11.5404297 C196.185807,11.6392578 196.497266,11.6886719 197.018359,11.6886719 C197.096224,11.6886719 197.178581,11.6871745 197.26543,11.6841797 C197.352279,11.6811849 197.43763,11.6766927 197.521484,11.6707031 Z" id="Path"></path>
                    <path d="M207.332422,4.94140625 C208.158984,5.97760417 208.572266,7.20247396 208.572266,8.61601563 C208.572266,10.0535156 208.158984,11.2828776 207.332422,12.3041016 C206.505859,13.3253255 205.251042,13.8359375 203.567969,13.8359375 C201.884896,13.8359375 200.630078,13.3253255 199.803516,12.3041016 C198.976953,11.2828776 198.563672,10.0535156 198.563672,8.61601563 C198.563672,7.20247396 198.976953,5.97760417 199.803516,4.94140625 C200.630078,3.90520833 201.884896,3.38710938 203.567969,3.38710938 C205.251042,3.38710938 206.505859,3.90520833 207.332422,4.94140625 Z M203.558984,5.55234375 C202.810286,5.55234375 202.233789,5.81738281 201.829492,6.34746094 C201.425195,6.87753906 201.223047,7.63372396 201.223047,8.61601562 C201.223047,9.59830729 201.425195,10.3559896 201.829492,10.8890625 C202.233789,11.4221354 202.810286,11.6886719 203.558984,11.6886719 C204.307682,11.6886719 204.882682,11.4221354 205.283984,10.8890625 C205.685286,10.3559896 205.885937,9.59830729 205.885937,8.61601562 C205.885937,7.63372396 205.685286,6.87753906 205.283984,6.34746094 C204.882682,5.81738281 204.307682,5.55234375 203.558984,5.55234375 Z" id="Shape"></path>
                    <path d="M218.7875,10.6195313 C218.721615,11.2005208 218.419141,11.7904948 217.880078,12.3894531 C217.041536,13.3417969 215.867578,13.8179688 214.358203,13.8179688 C213.11237,13.8179688 212.013281,13.4166667 211.060937,12.6140625 C210.108594,11.8114583 209.632422,10.5057292 209.632422,8.696875 C209.632422,7.00182292 210.062174,5.70208333 210.92168,4.79765625 C211.781185,3.89322917 212.896745,3.44101563 214.268359,3.44101563 C215.082943,3.44101563 215.816667,3.59375 216.469531,3.89921875 C217.122396,4.2046875 217.661458,4.68684896 218.086719,5.34570312 C218.470052,5.92669271 218.71862,6.60052083 218.832422,7.3671875 C218.898307,7.81640625 218.92526,8.46328125 218.913281,9.3078125 L212.210937,9.3078125 C212.246875,10.2901042 212.555339,10.9789063 213.136328,11.3742188 C213.489714,11.6197917 213.914974,11.7425781 214.412109,11.7425781 C214.939193,11.7425781 215.367448,11.5928385 215.696875,11.2933594 C215.876562,11.1316406 216.035286,10.9070312 216.173047,10.6195313 L218.7875,10.6195313 Z M216.253906,7.61875 C216.211979,6.94192708 216.006836,6.42832031 215.638477,6.07792969 C215.270117,5.72753906 214.813411,5.55234375 214.268359,5.55234375 C213.675391,5.55234375 213.21569,5.73802083 212.889258,6.109375 C212.562826,6.48072917 212.357682,6.98385417 212.273828,7.61875 L216.253906,7.61875 Z" id="Shape"></path>
                    <path d="M227.385547,4.15078125 C228.152214,4.64192708 228.592448,5.48645833 228.70625,6.684375 L226.145703,6.684375 C226.109766,6.35494792 226.016927,6.09440104 225.867187,5.90273437 C225.585677,5.55533854 225.10651,5.38164063 224.429687,5.38164063 C223.872656,5.38164063 223.475846,5.46848958 223.239258,5.6421875 C223.002669,5.81588542 222.884375,6.01953125 222.884375,6.253125 C222.884375,6.54661458 223.010156,6.75924479 223.261719,6.89101562 C223.513281,7.02877604 224.402734,7.26536458 225.930078,7.60078125 C226.948307,7.84036458 227.711979,8.20273438 228.221094,8.68789062 C228.724219,9.17903646 228.975781,9.79296875 228.975781,10.5296875 C228.975781,11.5 228.614909,12.2921224 227.893164,12.9060547 C227.171419,13.519987 226.055859,13.8269531 224.546484,13.8269531 C223.007161,13.8269531 221.870638,13.5020182 221.136914,12.8521484 C220.40319,12.2022786 220.036328,11.3742188 220.036328,10.3679688 L222.632812,10.3679688 C222.686719,10.8231771 222.803516,11.1466146 222.983203,11.3382813 C223.300651,11.6796875 223.88763,11.8503906 224.744141,11.8503906 C225.247266,11.8503906 225.64707,11.7755208 225.943555,11.6257813 C226.240039,11.4760417 226.388281,11.2514323 226.388281,10.9519531 C226.388281,10.6644531 226.26849,10.4458333 226.028906,10.2960938 C225.789323,10.1463542 224.89987,9.88880208 223.360547,9.5234375 C222.252474,9.24791667 221.470833,8.90351563 221.015625,8.49023438 C220.560417,8.08294271 220.332812,7.49596354 220.332812,6.72929688 C220.332812,5.82486979 220.687695,5.04772135 221.397461,4.39785156 C222.107227,3.74798177 223.10599,3.42304688 224.39375,3.42304688 C225.615625,3.42304688 226.612891,3.665625 227.385547,4.15078125 Z" id="Path"></path>
                </g>
            </g>
        </g>
    </g>
</svg>