<?xml version="1.0" encoding="UTF-8"?>
<svg width="129px" height="38px" viewBox="0 0 129 38" version="1.1" xmlns="http://www.w3.org/2000/svg" xmlns:xlink="http://www.w3.org/1999/xlink">
    <title>button/google play</title>
    <defs>
        <polygon id="path-1" points="0 0.160305663 128.194593 0.160305663 128.194593 37.602266 0 37.602266"></polygon>
        <polygon id="path-3" points="0 37.6025629 128.194593 37.6025629 128.194593 0.160305663 0 0.160305663"></polygon>
        <path d="M0.854610675,4.00863111 L0.854610675,4.14617733 L0.854610675,4.28372354 L4.76368168,8.16470385 L4.85343075,8.11423725 L9.48548045,5.50283822 C10.8077835,4.7567242 10.8077835,3.53661999 9.48548045,2.79050598 L9.48548045,2.79050598 L4.85343075,0.178117403 L4.76467889,0.128640347 L0.854610675,4.00863111 Z" id="path-5"></path>
        <linearGradient x1="80.753067%" y1="50.0031265%" x2="-157.302643%" y2="50.0031265%" id="linearGradient-7">
            <stop stop-color="#FEFEFE" offset="0%"></stop>
            <stop stop-color="#F8F8F8" offset="100%"></stop>
        </linearGradient>
        <path d="M0.0259275117,11.8962634 C0.461709151,12.3554105 1.18169621,12.4108248 1.99342677,11.9536568 L1.99342677,11.9536568 L15.8227626,4.15607274 L11.8239426,0.188012814 L0.0259275117,11.8962634 Z" id="path-8"></path>
        <linearGradient x1="86.2442043%" y1="31.1925669%" x2="-50.1451417%" y2="134.704561%" id="linearGradient-10">
            <stop stop-color="#EE4547" offset="0%"></stop>
            <stop stop-color="#C7186D" offset="100%"></stop>
        </linearGradient>
        <path d="M0.0259275117,1.34478639 L11.8239426,13.0520475 L15.8227626,9.08398756 L1.99342677,1.28739301 C1.61249179,1.07266258 1.25249826,0.971723807 0.932393211,0.971723807 L0.932393211,0.971723807 C0.569408046,0.970739847 0.257280693,1.10135928 0.0259275117,1.34478639" id="path-11"></path>
        <linearGradient x1="-50.7528344%" y1="-35.1550996%" x2="60.6055382%" y2="49.3489883%" id="linearGradient-13">
            <stop stop-color="#73C169" offset="0%"></stop>
            <stop stop-color="#289E6F" offset="100%"></stop>
        </linearGradient>
    </defs>
    <g id="Dreadful-Cherry-Tomatoes" stroke="none" stroke-width="1" fill="none" fill-rule="evenodd">
        <g transform="translate(-726.000000, -1025.000000)" id="footer">
            <g transform="translate(0.000000, 932.000000)">
                <g id="stores" transform="translate(584.000000, 92.954173)">
                    <g id="button/google-play" transform="translate(142.859060, 0.000000)">
                        <g id="Group-9">
                            <path d="M123.370779,37.1309476 L4.82421244,37.1309476 C2.42292597,37.1309476 0.475370956,35.1983738 0.475370956,32.8155587 L0.475370956,4.94810146 C0.475370956,2.56429688 2.42292597,0.632712598 4.82421244,0.632712598 L123.370779,0.632712598 C125.772066,0.632712598 127.718624,2.56429688 127.718624,4.94810146 L127.718624,32.8155587 C127.718624,35.1983738 125.772066,37.1309476 123.370779,37.1309476" id="Fill-1" fill="#000000"></path>
                            <g id="Group-5">
                                <mask id="mask-2" fill="white">
                                    <use xlink:href="#path-1"></use>
                                </mask>
                                <g id="Clip-4"></g>
                                <path d="M4.82431216,1.10403104 C2.68928129,1.10403104 0.951140796,2.82781168 0.951140796,4.94740878 L0.951140796,32.814866 C0.951140796,34.9344631 2.68928129,36.6582438 4.82431216,36.6582438 L123.370879,36.6582438 C125.506907,36.6582438 127.24405,34.9344631 127.24405,32.814866 L127.24405,4.94740878 C127.24405,2.82781168 125.506907,1.10403104 123.370879,1.10403104 L4.82431216,1.10403104 Z M123.370879,37.602266 L4.82431216,37.602266 C2.16474779,37.602266 -0.000199442398,35.4549618 -0.000199442398,32.814866 L-0.000199442398,4.94740878 C-0.000199442398,2.30731305 2.16474779,0.1600088 4.82431216,0.1600088 L123.370879,0.1600088 C126.030443,0.1600088 128.195391,2.30731305 128.195391,4.94740878 L128.195391,32.814866 C128.195391,35.4549618 126.030443,37.602266 123.370879,37.602266 L123.370879,37.602266 Z" id="Fill-3" fill="#A6A8AB" mask="url(#mask-2)"></path>
                            </g>
                            <mask id="mask-4" fill="white">
                                <use xlink:href="#path-3"></use>
                            </mask>
                            <g id="Clip-7"></g>
                            <path d="M101.43042,28.3909245 L103.19748,28.3909245 L103.19748,16.6381445 L101.43042,16.6381445 L101.43042,28.3909245 Z M117.354899,20.872391 L115.328564,25.9675383 L115.267734,25.9675383 L113.164614,20.872391 L111.259939,20.872391 L114.41412,27.9941185 L112.616147,31.9562412 L114.459992,31.9562412 L119.320403,20.872391 L117.354899,20.872391 Z M107.327932,27.0570231 C106.748552,27.0570231 105.941807,26.7700561 105.941807,26.0585761 C105.941807,25.1511669 106.946997,24.8028484 107.815569,24.8028484 C108.592397,24.8028484 108.958374,24.9700808 109.431052,25.1966858 C109.293437,26.285181 108.349077,27.0570231 107.327932,27.0570231 L107.327932,27.0570231 Z M107.541335,20.6151103 C106.260915,20.6151103 104.93562,21.1742011 104.387154,22.4140961 L105.956766,23.0652142 C106.291829,22.4140961 106.917081,22.2023343 107.571252,22.2023343 C108.485695,22.2023343 109.416094,22.7465819 109.431052,23.7143531 L109.431052,23.8360667 C109.110947,23.6539911 108.424865,23.3818673 107.587207,23.3818673 C105.895936,23.3818673 104.173751,24.3051092 104.173751,26.0288898 C104.173751,27.6012707 105.559875,28.6145608 107.114529,28.6145608 C108.303205,28.6145608 108.958374,28.0851563 109.370222,27.464714 L109.431052,27.464714 L109.431052,28.3721232 L111.137282,28.3721232 L111.137282,23.8657529 C111.137282,21.7788107 109.568667,20.6151103 107.541335,20.6151103 L107.541335,20.6151103 Z M96.6158809,22.3032675 L94.1009122,22.3032675 L94.1009122,18.273856 L96.6158809,18.273856 C97.9371867,18.273856 98.6880874,19.3593826 98.6880874,20.2885618 C98.6880874,21.1989396 97.9371867,22.3032675 96.6158809,22.3032675 L96.6158809,22.3032675 Z M96.5700091,16.6381445 L92.3338526,16.6381445 L92.3338526,28.3909245 L94.1009122,28.3909245 L94.1009122,23.938979 L96.5700091,23.938979 C98.5295307,23.938979 100.455147,22.530862 100.455147,20.2885618 C100.455147,18.045272 98.5295307,16.6381445 96.5700091,16.6381445 L96.5700091,16.6381445 Z M73.4695934,27.0590022 C72.2480087,27.0590022 71.2248692,26.043733 71.2248692,24.650459 C71.2248692,23.2413525 72.2480087,22.2122297 73.4695934,22.2122297 C74.6752226,22.2122297 75.6215768,23.2413525 75.6215768,24.650459 C75.6215768,26.043733 74.6752226,27.0590022 73.4695934,27.0590022 L73.4695934,27.0590022 Z M75.4989198,21.5304359 L75.4380898,21.5304359 C75.0411995,21.0604038 74.2783323,20.6358907 73.3160227,20.6358907 C71.3016545,20.6358907 69.4548179,22.3933157 69.4548179,24.650459 C69.4548179,26.8927592 71.3016545,28.6343516 73.3160227,28.6343516 C74.2783323,28.6343516 75.0411995,28.2098385 75.4380898,27.7259529 L75.4989198,27.7259529 L75.4989198,28.3008763 C75.4989198,29.8307069 74.6752226,30.6490574 73.3469363,30.6490574 C72.2629668,30.6490574 71.5918432,29.8762257 71.3166127,29.2251077 L69.7749229,29.8613826 C70.2176851,30.9211812 71.393398,32.2234173 73.3469363,32.2234173 C75.4231316,32.2234173 77.1782247,31.012219 77.1782247,28.0584387 L77.1782247,20.8793178 L75.4989198,20.8793178 L75.4989198,21.5304359 Z M78.3998094,28.3909245 L80.1708579,28.3909245 L80.1708579,16.637155 L78.3998094,16.637155 L78.3998094,28.3909245 Z M82.7805617,24.5139024 C82.73469,22.9692287 83.986191,22.1815539 84.8866734,22.1815539 C85.5887107,22.1815539 86.1840462,22.5298724 86.3824914,23.0295907 L82.7805617,24.5139024 Z M88.2751998,23.1809905 C87.9391393,22.2874348 86.916997,20.6358907 84.8258435,20.6358907 C82.7496481,20.6358907 81.0244714,22.2577486 81.0244714,24.6356159 C81.0244714,26.8769266 82.73469,28.6343516 85.0242887,28.6343516 C86.8711253,28.6343516 87.9391393,27.5132015 88.3819015,26.8620835 L87.0087405,25.9536847 C86.5510202,26.6196459 85.9247711,27.0590022 85.0242887,27.0590022 C84.1238063,27.0590022 83.4825989,26.6503217 83.0707504,25.8468143 L88.4586868,23.6361794 L88.2751998,23.1809905 Z M45.347218,21.8639112 L45.347218,23.5599847 L49.4377816,23.5599847 C49.3151245,24.5139024 48.9950195,25.2115289 48.5063856,25.6954145 C47.9110501,26.2861705 46.9796541,26.9382781 45.347218,26.9382781 C42.8282605,26.9382781 40.8597641,24.9235724 40.8597641,22.4239915 C40.8597641,19.9244106 42.8282605,17.9106944 45.347218,17.9106944 C46.7054208,17.9106944 47.6976467,18.4400989 48.4305975,19.1218928 L49.6362268,17.9255375 C48.6130873,16.9557872 47.2548846,16.2136314 45.347218,16.2136314 C41.8968645,16.2136314 38.9969721,19.0011687 38.9969721,22.4239915 C38.9969721,25.8468143 41.8968645,28.6343516 45.347218,28.6343516 C47.2090128,28.6343516 48.6130873,28.0277629 49.7120149,26.8927592 C50.8418561,25.7716091 51.1928747,24.1962597 51.1928747,22.9237098 C51.1928747,22.5298724 51.1629584,22.1667108 51.1021284,21.8639112 L45.347218,21.8639112 Z M55.8438714,27.0590022 C54.6222867,27.0590022 53.5692309,26.0595656 53.5692309,24.6356159 C53.5692309,23.1958336 54.6222867,22.2122297 55.8438714,22.2122297 C57.0644589,22.2122297 58.118512,23.1958336 58.118512,24.6356159 C58.118512,26.0595656 57.0644589,27.0590022 55.8438714,27.0590022 L55.8438714,27.0590022 Z M55.8438714,20.6358907 C53.6151026,20.6358907 51.7981824,22.3181106 51.7981824,24.6356159 C51.7981824,26.9382781 53.6151026,28.6343516 55.8438714,28.6343516 C58.0726402,28.6343516 59.8885633,26.9382781 59.8885633,24.6356159 C59.8885633,22.3181106 58.0726402,20.6358907 55.8438714,20.6358907 L55.8438714,20.6358907 Z M64.6682003,27.0590022 C63.4466156,27.0590022 62.3935598,26.0595656 62.3935598,24.6356159 C62.3935598,23.1958336 63.4466156,22.2122297 64.6682003,22.2122297 C65.8887878,22.2122297 66.9418437,23.1958336 66.9418437,24.6356159 C66.9418437,26.0595656 65.8887878,27.0590022 64.6682003,27.0590022 L64.6682003,27.0590022 Z M64.6682003,20.6358907 C62.4394315,20.6358907 60.6225113,22.3181106 60.6225113,24.6356159 C60.6225113,26.9382781 62.4394315,28.6343516 64.6682003,28.6343516 C66.8959719,28.6343516 68.7128922,26.9382781 68.7128922,24.6356159 C68.7128922,22.3181106 66.8959719,20.6358907 64.6682003,20.6358907 L64.6682003,20.6358907 Z" id="Fill-6" fill="#FEFEFE" mask="url(#mask-4)"></path>
                            <path d="M9.99784797,7.28193421 C9.72261746,7.57088022 9.5600719,8.02013189 9.5600719,8.60099253 L9.5600719,29.3783876 C9.5600719,29.9592482 9.72261746,30.4084999 9.99784797,30.6984355 L10.0676528,30.7657243 L21.795863,19.1267415 L21.795863,18.9901848 L21.795863,18.8526386 L10.0676528,7.21365587 L9.99784797,7.28193421 Z" id="Fill-8" fill="#5AC8F2" mask="url(#mask-4)"></path>
                        </g>
                        <g id="Group-12" transform="translate(20.941452, 14.843117)">
                            <mask id="mask-6" fill="white">
                                <use xlink:href="#path-5"></use>
                            </mask>
                            <g id="Clip-11"></g>
                            <path d="M0.854610675,4.00863111 L0.854610675,4.14617733 L0.854610675,4.28372354 L4.76368168,8.16470385 L4.85343075,8.11423725 L9.48548045,5.50283822 C10.8077835,4.7567242 10.8077835,3.53661999 9.48548045,2.79050598 L9.48548045,2.79050598 L4.85343075,0.178117403 L4.76467889,0.128640347 L0.854610675,4.00863111 Z" id="Fill-10" fill="url(#linearGradient-7)" mask="url(#mask-6)"></path>
                        </g>
                        <g id="Group-15" transform="translate(9.972120, 18.801281)">
                            <mask id="mask-9" fill="white">
                                <use xlink:href="#path-8"></use>
                            </mask>
                            <g id="Clip-14"></g>
                            <path d="M0.0259275117,11.8962634 C0.461709151,12.3554105 1.18169621,12.4108248 1.99342677,11.9536568 L1.99342677,11.9536568 L15.8227626,4.15607274 L11.8239426,0.188012814 L0.0259275117,11.8962634 Z" id="Fill-13" fill="url(#linearGradient-10)" mask="url(#mask-9)"></path>
                        </g>
                        <g id="Group-18" transform="translate(9.972120, 5.937247)">
                            <mask id="mask-12" fill="white">
                                <use xlink:href="#path-11"></use>
                            </mask>
                            <g id="Clip-17"></g>
                            <path d="M0.0259275117,1.34478639 L11.8239426,13.0520475 L15.8227626,9.08398756 L1.99342677,1.28739301 C1.61249179,1.07266258 1.25249826,0.971723807 0.932393211,0.971723807 L0.932393211,0.971723807 C0.569408046,0.970739847 0.257280693,1.10135928 0.0259275117,1.34478639" id="Fill-16" fill="url(#linearGradient-13)" mask="url(#mask-12)"></path>
                        </g>
                        <g id="Group-30" transform="translate(0.000000, 0.160306)">
                            <path d="M43.5485468,7.78600646 C43.1935393,7.47331146 42.7238524,7.27243462 42.2062994,7.27243462 C41.0405586,7.27243462 40.1430678,8.2273418 40.1430678,9.39994804 C40.1430678,10.5715647 41.0405586,11.5185556 42.2062994,11.5185556 C43.2094947,11.5185556 43.9374594,10.9406636 43.9853256,10.025338 L42.4007558,10.025338 L42.4007558,9.37520951 L44.8429279,9.37520951 C44.8429279,11.3186683 43.7998442,12.2339938 42.2062994,12.2339938 C40.6197351,12.2339938 39.39117,10.9654021 39.39117,9.39994804 C39.39117,7.82657765 40.6197351,6.55798592 42.2062994,6.55798592 C42.9422419,6.55798592 43.6053878,6.8390156 44.0910301,7.28826727 L43.5485468,7.78600646 Z" id="Fill-19" fill="#FEFEFE"></path>
                            <polygon id="Fill-21" fill="#FEFEFE" points="49.1724235 6.62200923 49.1724235 7.32062527 46.6235497 7.32062527 46.6235497 9.08695618 48.8483296 9.08695618 48.8483296 9.78557222 46.6235497 9.78557222 46.6235497 11.4549281 49.2531977 11.4549281 49.2531977 12.1535441 45.8716518 12.1535441 45.8716518 6.62200923"></polygon>
                            <polygon id="Fill-23" fill="#FEFEFE" points="54.0513829 6.62200923 54.0513829 7.3285416 52.3601113 7.3285416 52.3601113 12.1535441 51.6002358 12.1535441 51.6002358 7.3285416 49.9089643 7.3285416 49.9089643 6.62200923"></polygon>
                            <polygon id="Clip-26" points="0 37.4422572 128.194593 37.4422572 128.194593 0 0 0"></polygon>
                            <polygon id="Fill-25" fill="#FEFEFE" points="56.9088938 12.1535441 57.6607917 12.1535441 57.6607917 6.62200923 56.9088938 6.62200923"></polygon>
                            <polygon id="Fill-27" fill="#FEFEFE" points="62.7896524 6.62200923 62.7896524 7.3285416 61.0993781 7.3285416 61.0993781 12.1535441 60.3385053 12.1535441 60.3385053 7.3285416 58.6472338 7.3285416 58.6472338 6.62200923"></polygon>
                            <path d="M68.098111,11.5107382 C69.2708323,11.5107382 70.1693203,10.5716637 70.1693203,9.400047 C70.1693203,8.22744076 69.2708323,7.2804499 68.098111,7.2804499 C66.9333674,7.2804499 66.0348794,8.22744076 66.0348794,9.400047 C66.0348794,10.5716637 66.9333674,11.5107382 68.098111,11.5107382 M68.098111,6.55808487 C69.6916557,6.55808487 70.9291958,7.82568706 70.9291958,9.400047 C70.9291958,10.9655011 69.6916557,12.2331032 68.098111,12.2331032 C66.5125439,12.2331032 65.2819843,10.9655011 65.2819843,9.400047 C65.2819843,7.82568706 66.5125439,6.55808487 68.098111,6.55808487" id="Fill-28" fill="#FEFEFE"></path>
                            <polygon id="Fill-29" fill="#FEFEFE" points="75.3799524 12.1533462 72.8400534 7.98737808 72.8400534 12.1533462 72.0871584 12.1533462 72.0871584 6.62181132 72.8320757 6.62181132 75.3480416 10.7561142 75.3480416 6.62181132 76.0999394 6.62181132 76.0999394 12.1533462"></polygon>
                        </g>
                    </g>
                </g>
            </g>
        </g>
    </g>
</svg>